<?xml version="1.0" standalone="no"?>
<!DOCTYPE svg PUBLIC "-//W3C//DTD SVG 20010904//EN"
 "http://www.w3.org/TR/2001/REC-SVG-20010904/DTD/svg10.dtd">
<svg version="1.0" xmlns="http://www.w3.org/2000/svg"
 width="1024.000000pt" height="1024.000000pt" viewBox="0 0 1024.000000 1024.000000"
 preserveAspectRatio="xMidYMid meet">

<g transform="translate(0.000000,1024.000000) scale(0.100000,-0.100000)"
fill="#000000" stroke="none">
<path d="M0 5120 l0 -5120 5120 0 5120 0 0 5120 0 5120 -5120 0 -5120 0 0
-5120z m2061 3949 c-191 -18 -297 -127 -311 -319 l-7 -85 -1 72 c-3 95 25 170
87 236 71 76 142 105 256 105 55 -1 53 -1 -24 -9z m154 -18 c151 -70 231 -262
179 -427 -24 -78 -98 -158 -181 -195 l-63 -28 0 -222 0 -222 77 -86 c126 -141
285 -300 336 -338 26 -19 46 -38 43 -40 -12 -12 -161 127 -307 286 l-159 174
2 226 3 226 67 35 c82 43 122 80 156 145 33 66 42 181 18 252 -33 98 -115 185
-202 217 -21 8 -32 15 -24 15 8 0 33 -8 55 -18z m6173 -47 c59 -29 101 -74
139 -147 39 -76 39 -179 0 -259 -32 -65 -90 -120 -153 -144 l-43 -16 -3 -327
c-3 -283 -5 -330 -20 -356 -20 -36 -1118 -1135 -1118 -1119 0 6 7 17 15 24 8
7 12 17 8 24 -3 6 -2 7 2 3 11 -10 146 123 138 136 -3 6 -2 7 4 4 13 -8 116
97 106 108 -5 4 -2 5 5 1 14 -8 803 769 830 819 15 26 17 75 20 358 l3 328 45
19 c64 28 101 58 133 110 76 121 58 274 -46 375 -55 54 -89 68 -173 73 -63 4
-83 1 -122 -17 -79 -38 -135 -105 -164 -196 -7 -22 -13 -31 -13 -20 0 34 33
103 71 149 80 95 225 126 336 70z m-6227 -87 c59 -31 100 -92 107 -155 19
-200 -213 -299 -346 -148 -33 38 -46 82 -39 137 3 28 4 26 5 -14 4 -109 83
-187 190 -187 127 0 219 143 169 263 -19 45 -89 105 -132 113 -83 15 -168 -26
-204 -98 -11 -24 -21 -36 -21 -27 0 29 57 96 101 117 57 29 115 28 170 -1z
m6097 -36 c-56 -8 -94 -34 -119 -81 -71 -131 81 -280 201 -197 91 62 92 191 1
253 -19 13 -30 24 -24 24 6 0 25 -12 43 -26 88 -75 79 -195 -19 -261 -80 -54
-191 -8 -226 93 -31 92 53 206 150 203 l40 -2 -47 -6z m-272 -181 c8 -100 61
-180 149 -226 54 -28 74 -56 62 -86 -3 -7 -6 -1 -6 14 -1 21 -12 33 -55 58
-63 36 -111 87 -137 145 -19 42 -38 166 -24 153 4 -4 9 -30 11 -58z m-6148
-193 c37 -38 118 -87 146 -87 7 0 17 -7 20 -16 3 -9 6 -111 6 -228 0 -171 3
-222 17 -261 13 -40 50 -84 210 -252 107 -112 190 -203 185 -203 -5 0 -95 92
-200 205 -151 162 -193 214 -206 252 -13 37 -16 91 -16 265 l0 218 -27 11
c-62 23 -92 42 -133 82 -41 41 -90 126 -89 157 0 8 11 -12 25 -45 13 -33 41
-77 62 -98z m2939 -204 c388 -263 466 -313 580 -377 152 -84 390 -198 508
-243 265 -101 765 -223 1065 -259 150 -18 176 -28 217 -81 l28 -36 1 -336 c0
-185 -5 -446 -12 -581 -13 -255 -15 -277 -35 -476 l-13 -122 -95 -7 c-181 -13
-303 -45 -446 -117 -153 -76 -300 -203 -400 -343 -95 -132 -173 -338 -195
-507 -5 -46 -10 -205 -10 -354 l0 -271 -45 -6 c-68 -7 -167 -60 -216 -115 -50
-56 -95 -147 -109 -221 -6 -31 -10 -236 -10 -485 l-1 -431 -167 -132 c-189
-150 -246 -190 -492 -348 -313 -200 -335 -209 -421 -157 -209 123 -539 338
-672 438 -221 165 -352 281 -547 480 -608 624 -982 1344 -1159 2231 -30 152
-89 569 -101 718 -31 393 -40 1069 -16 1138 30 84 65 100 276 126 383 48 626
109 1015 253 366 136 685 315 1075 603 80 59 154 111 165 115 49 21 74 10 232
-97z m3420 -15 c-2 -18 -4 -6 -4 27 0 33 2 48 4 33 2 -15 2 -42 0 -60z m0
-260 c-1 -40 -3 -8 -3 72 0 80 2 112 3 73 2 -40 2 -106 0 -145z m-494 -700
c-274 -274 -502 -498 -508 -498 -5 0 215 225 490 500 l500 500 5 62 4 63 4
-64 3 -65 -498 -498z m1293 -323 c69 -21 133 -73 173 -140 31 -51 35 -67 39
-145 4 -79 2 -93 -23 -149 -32 -71 -94 -133 -163 -163 -68 -30 -181 -30 -243
0 -64 31 -117 85 -146 149 l-24 53 -197 0 -196 0 -231 -228 c-189 -188 -237
-230 -271 -240 -44 -13 -465 -16 -496 -4 -10 4 96 7 235 7 205 0 257 3 279 15
15 8 128 115 251 238 l225 222 205 0 205 0 22 -55 c24 -60 83 -120 147 -151
52 -24 177 -22 236 4 64 28 112 76 147 144 55 111 38 252 -42 343 -63 71 -126
99 -223 99 -62 0 -90 -5 -125 -22 -81 -41 -131 -99 -150 -175 -7 -26 -16 -49
-20 -52 -9 -6 2 46 19 89 53 134 218 206 367 161z m-33 -138 c47 -20 107 -91
106 -125 l-1 -27 -7 28 c-9 39 -58 97 -97 113 -73 30 -143 6 -191 -65 -35 -51
-33 -148 3 -191 50 -59 120 -80 184 -54 51 21 87 63 101 120 7 25 14 43 16 40
2 -2 -1 -22 -7 -45 -15 -55 -61 -106 -116 -127 -38 -15 -51 -15 -87 -4 -97 29
-131 78 -125 181 4 79 23 112 84 146 45 26 90 29 137 10z m-588 -127 c-206 -5
-222 -6 -250 -27 -16 -12 -124 -116 -240 -232 -115 -116 -212 -211 -215 -211
-14 0 458 460 480 469 14 5 117 9 235 8 l210 -1 -220 -6z m-735 -467 c0 -11
-398 -15 -432 -6 -15 5 76 9 203 11 126 1 229 -1 229 -5z m-463 -65 c-3 -8 -6
-5 -6 6 -1 11 2 17 5 13 3 -3 4 -12 1 -19z m-3 -82 c-3 -15 -8 -25 -11 -23 -2
3 -1 17 3 31 3 15 8 25 11 23 2 -3 1 -17 -3 -31z m181 -556 c338 -91 589 -351
682 -704 13 -49 17 -140 22 -451 l6 -390 87 -7 c50 -3 104 -14 130 -26 58 -25
115 -83 139 -139 18 -43 19 -79 19 -831 l0 -787 -24 -50 c-23 -51 -73 -103
-125 -129 -66 -35 -141 -37 -1226 -34 l-1070 3 -53 24 c-30 14 -69 43 -92 68
-74 84 -71 48 -68 914 l3 774 28 57 c48 98 127 145 261 156 l81 7 6 375 c6
362 7 378 31 471 49 181 122 311 248 443 127 132 266 215 429 256 115 29 116
29 266 25 104 -2 161 -9 220 -25z m-6090 -224 c28 -7 64 -20 80 -29 60 -31
136 -129 135 -174 -1 -10 -7 -1 -14 19 -43 121 -184 202 -311 179 -30 -6 -64
-15 -76 -21 -43 -23 -101 -85 -126 -134 -23 -45 -25 -59 -21 -136 3 -71 9 -95
31 -132 53 -91 139 -138 251 -138 105 1 195 63 258 179 l17 31 88 0 88 1 150
-155 c178 -183 169 -179 384 -174 77 2 141 0 141 -4 0 -12 -300 -9 -341 2 -28
8 -72 46 -186 164 l-148 153 -87 2 -87 2 -25 -49 c-29 -58 -92 -117 -154 -144
-59 -27 -177 -22 -237 9 -53 28 -109 88 -134 143 -25 55 -29 183 -7 235 35 82
110 148 194 171 61 16 77 16 137 0z m22 -159 c38 -25 73 -84 73 -121 0 -68
-67 -148 -134 -160 -28 -5 -48 -2 -83 15 -67 33 -102 102 -88 175 7 41 71 110
107 117 38 7 91 -4 125 -26z m436 -83 c18 -8 95 -81 172 -160 l140 -146 125
-5 c69 -3 127 -7 130 -10 3 -3 -53 -3 -123 -1 l-128 3 -114 115 c-63 63 -124
127 -137 141 -47 53 -75 64 -193 70 l-110 6 103 1 c76 2 111 -2 135 -14z m499
-1467 c-227 -226 -424 -429 -439 -451 l-28 -39 -5 -426 -5 -426 -50 -23 c-115
-54 -175 -148 -175 -272 1 -113 50 -206 138 -257 52 -31 170 -43 238 -24 111
30 198 153 198 280 0 115 -72 226 -174 270 l-50 22 -1 352 c-2 420 -1 444 13
471 6 12 103 114 215 227 112 113 200 209 196 214 -5 4 -3 5 3 2 7 -4 98 78
210 188 109 107 201 195 203 195 3 0 -182 -188 -412 -418 l-417 -418 1 -404 0
-405 58 -28 c69 -32 120 -92 152 -176 50 -133 -20 -300 -155 -368 -45 -23 -59
-25 -141 -21 -76 3 -98 8 -137 31 -96 56 -148 150 -148 269 0 67 4 84 33 139
35 68 102 129 161 146 l31 9 2 413 c3 378 4 416 21 455 14 30 137 161 443 469
232 234 425 424 428 422 2 -3 -181 -191 -407 -418z m-389 -1484 c-13 -2 -35
-2 -50 0 -16 2 -5 4 22 4 28 0 40 -2 28 -4z m-123 -41 c-71 -71 -72 -158 -1
-224 36 -34 46 -38 92 -38 35 0 63 7 85 20 34 22 74 90 74 128 0 38 -25 86
-64 120 -43 38 -37 43 10 7 40 -30 69 -101 60 -147 -16 -84 -79 -138 -161
-138 -92 0 -159 69 -158 162 1 50 17 85 61 125 41 38 43 26 2 -15z"/>
<path d="M4523 7933 c-162 -113 -193 -137 -181 -146 9 -6 8 -7 -5 -3 -11 4
-59 -20 -135 -67 -64 -40 -148 -90 -186 -111 -51 -29 -65 -41 -55 -48 10 -7 8
-8 -7 -3 -14 3 -49 -10 -105 -39 -77 -41 -165 -80 -399 -179 -89 -38 -224 -84
-325 -111 -184 -50 -290 -76 -372 -91 -71 -14 -90 -21 -86 -32 3 -8 12 -12 19
-9 8 3 14 1 14 -4 0 -16 -27 -12 -45 6 -14 14 -25 15 -98 4 -98 -14 -159 -39
-182 -74 -15 -22 -16 -53 -12 -268 3 -134 6 -279 6 -323 2 -132 17 -266 31
-275 10 -6 10 -8 -1 -12 -30 -10 54 -583 131 -883 45 -178 124 -420 195 -600
79 -201 242 -513 265 -507 6 1 9 -2 5 -8 -3 -5 21 -52 54 -103 55 -85 64 -94
90 -92 21 1 28 -2 24 -12 -4 -10 -9 -11 -19 -2 -29 24 -25 -1 6 -41 29 -36 50
-55 35 -30 -3 6 -1 10 5 10 7 0 9 -7 6 -16 -9 -22 40 -85 59 -78 8 4 15 10 15
16 0 5 -4 7 -9 4 -4 -3 -17 1 -27 9 -12 9 -14 14 -6 15 7 0 26 15 43 32 16 18
29 29 29 26 0 -4 -11 -19 -25 -34 -33 -35 -32 -42 7 -38 l31 4 -23 -20 c-13
-11 -27 -20 -32 -20 -16 0 -6 -16 44 -70 27 -30 48 -47 44 -37 -3 10 -2 15 3
12 5 -3 12 -1 15 4 7 10 46 3 46 -8 0 -4 -5 -12 -11 -18 -9 -9 -8 -18 5 -37
15 -24 45 -39 31 -16 -3 6 -2 10 4 10 17 0 23 -20 11 -35 -10 -13 -17 -9 -42
22 -16 20 -27 42 -24 48 2 7 1 18 -4 25 -6 9 -11 7 -19 -9 -11 -19 -6 -28 45
-81 31 -33 61 -57 67 -53 6 4 7 1 2 -6 -8 -15 120 -143 284 -285 82 -72 105
-87 113 -75 8 11 9 11 4 -3 -4 -12 15 -32 67 -73 144 -112 180 -135 201 -129
15 4 17 2 8 -4 -10 -7 -8 -13 11 -25 24 -15 25 -15 21 6 -3 14 1 10 11 -10 11
-24 50 -55 144 -117 165 -108 201 -126 251 -126 52 0 68 8 290 155 218 145
314 214 306 222 -3 3 -12 0 -20 -6 -8 -7 -19 -10 -24 -7 -6 3 -9 -2 -8 -11 0
-9 -5 -18 -12 -20 -9 -4 -11 2 -7 20 4 14 3 27 -2 30 -5 3 -9 -3 -9 -15 1 -12
-6 -23 -14 -25 -13 -4 -13 -3 0 7 10 8 11 13 4 16 -8 3 -6 18 8 45 11 23 17
43 14 47 -3 3 -6 0 -6 -6 0 -7 -10 -11 -22 -11 -17 1 -19 2 -5 6 20 5 22 19 5
26 -10 4 -10 6 0 6 10 1 19 31 8 31 -4 0 -176 -128 -186 -138 -3 -3 3 -2 13 1
11 4 17 1 17 -9 0 -12 -4 -12 -20 -4 -17 9 -36 0 -122 -58 -57 -38 -129 -84
-161 -101 -32 -19 -54 -37 -50 -43 3 -7 1 -8 -6 -4 -6 4 -9 12 -6 17 4 5 -2
12 -12 16 -10 4 -53 28 -96 55 -43 26 -83 45 -89 42 -12 -8 -58 15 -58 29 0 5
12 2 26 -8 14 -9 28 -15 30 -12 9 9 -66 48 -77 41 -7 -4 -9 -3 -6 4 4 6 -22
31 -60 58 -38 26 -117 84 -177 128 -60 45 -113 80 -118 78 -5 -1 -7 2 -4 7 6
10 -64 68 -77 63 -5 -1 -6 2 -3 7 3 5 -15 27 -41 49 -72 61 -262 255 -348 357
-146 171 -285 368 -395 557 -31 54 -61 94 -65 90 -5 -4 -5 -2 -2 4 4 6 -23 76
-60 155 -36 79 -80 183 -98 232 -17 48 -35 84 -40 80 -4 -5 -5 -3 -1 4 4 7
-11 66 -33 132 -41 123 -98 340 -125 471 -30 149 -79 506 -91 665 -3 44 -8
103 -10 130 -2 28 -7 131 -10 230 -3 99 -8 228 -10 287 -6 119 -11 111 75 123
391 56 811 187 1228 382 31 14 49 29 46 35 -4 7 -2 8 4 4 17 -10 77 19 297
145 169 96 195 114 181 125 -15 10 -15 12 -1 18 9 3 13 10 10 16 -3 5 -1 10 4
10 14 0 14 -17 0 -26 -7 -4 -7 -10 -1 -16 13 -13 35 0 26 14 -4 7 -2 8 5 4 7
-5 48 16 98 48 47 31 96 56 108 56 12 0 42 -16 68 -36 63 -49 255 -173 362
-234 231 -131 586 -289 764 -342 25 -7 36 -6 45 4 6 7 7 9 2 5 -10 -8 -46 20
-46 36 0 6 7 2 16 -9 14 -18 15 -18 8 6 -3 14 -3 22 1 18 5 -4 14 -3 22 3 7 6
13 8 13 3 0 -5 5 -2 10 6 7 11 10 12 10 2 0 -8 -9 -16 -20 -19 -11 -3 -20 -10
-20 -15 0 -5 4 -7 8 -4 4 2 8 -9 7 -26 0 -31 1 -31 120 -70 149 -48 361 -100
525 -129 69 -12 130 -26 136 -31 16 -12 11 -287 -12 -633 -6 -93 -32 -394 -39
-445 -2 -19 -8 -63 -11 -97 l-7 -63 51 23 c55 24 56 47 1 41 -27 -3 -28 -2
-15 11 8 8 20 15 27 15 8 0 8 4 1 13 -8 10 -6 13 7 13 13 0 17 -6 13 -20 -3
-11 2 -24 13 -32 15 -12 20 -11 32 4 8 9 12 11 8 5 -3 -7 -2 -13 2 -13 31 0
41 29 52 155 40 442 56 722 56 962 0 137 -1 142 -25 168 -42 45 -90 63 -271
99 -414 84 -680 163 -983 295 -76 33 -143 58 -149 54 -6 -3 -7 -2 -4 4 3 5
-24 24 -61 42 -37 18 -109 58 -160 87 -52 30 -96 54 -99 54 -3 0 1 -8 8 -17
13 -16 12 -17 -3 -4 -10 7 -15 17 -13 22 7 11 -33 32 -45 24 -6 -4 -9 -2 -8 3
4 15 -201 154 -214 146 -6 -4 -8 -3 -4 4 3 6 -7 20 -24 32 -23 17 -34 19 -50
10 -11 -6 -20 -16 -20 -23 0 -7 -4 -6 -10 3 -7 12 -3 18 17 26 l27 12 -49 31
c-61 39 -100 40 -152 4z m112 7 c3 -5 -1 -10 -10 -10 -9 0 -13 5 -10 10 3 6 8
10 10 10 2 0 7 -4 10 -10z m-91 -18 c2 -4 -5 -9 -17 -9 -17 -2 -19 0 -7 7 18
12 18 12 24 2z m97 -19 c12 -16 12 -17 -1 -7 -8 6 -22 14 -30 17 -13 5 -12 6
1 6 9 1 23 -7 30 -16z m44 -1 c-3 -3 -11 0 -18 7 -9 10 -8 11 6 5 10 -3 15 -9
12 -12z m-95 -17 c-7 -8 -17 -15 -23 -15 -6 0 -2 7 9 15 25 19 30 19 14 0z
m70 -10 c0 -2 -6 -8 -13 -14 -10 -8 -14 -7 -14 2 0 8 6 14 14 14 7 0 13 -1 13
-2z m-118 -12 c-10 -4 -10 -8 0 -21 11 -13 10 -14 -7 -5 -11 6 -27 8 -35 6 -8
-2 -4 3 10 11 14 8 30 15 35 15 6 0 4 -3 -3 -6z m-86 -28 c1 -8 -3 -18 -8 -22
-6 -3 -8 -1 -4 5 13 22 -16 23 -35 1 -10 -12 -19 -17 -19 -11 0 13 51 54 58
47 3 -3 7 -12 8 -20z m124 5 c0 -5 -2 -10 -4 -10 -3 0 -8 5 -11 10 -3 6 -1 10
4 10 6 0 11 -4 11 -10z m71 -3 c-6 -8 -7 -18 -3 -22 4 -5 1 -5 -5 -1 -18 10
-16 -9 2 -27 13 -13 13 -16 0 -21 -8 -3 -14 0 -12 7 1 6 -8 13 -20 15 -13 2
-23 7 -23 12 0 5 7 7 15 4 18 -7 21 22 3 30 -7 3 -3 3 9 1 12 -3 24 -1 28 5 3
5 9 10 12 10 3 0 0 -6 -6 -13z m-157 -15 c-6 -4 -14 -14 -17 -22 -4 -10 -6 -8
-6 8 -1 15 5 22 17 22 10 0 13 -3 6 -8z m190 0 c-6 -4 -10 -15 -8 -25 1 -9 -2
-15 -7 -11 -16 10 -10 44 9 44 10 0 13 -3 6 -8z m53 -14 c-3 -8 -6 -5 -6 6 -1
11 2 17 5 13 3 -3 4 -12 1 -19z m26 7 c-3 -9 -8 -14 -10 -11 -3 3 -2 9 2 15 9
16 15 13 8 -4z m-328 -15 c3 -5 1 -10 -4 -10 -6 0 -11 5 -11 10 0 6 2 10 4 10
3 0 8 -4 11 -10z m103 -21 c2 -18 1 -21 -7 -9 -5 8 -8 17 -5 21 2 4 -1 10 -6
12 -6 3 -5 4 2 3 7 -1 14 -13 16 -27z m-38 -4 c-8 -10 -5 -17 12 -30 l23 -17
-24 7 c-14 4 -21 3 -18 -2 4 -5 0 -10 -8 -10 -11 0 -12 4 -3 14 21 26 -2 26
-26 0 -14 -15 -27 -23 -30 -19 -6 10 8 34 20 34 19 1 53 31 47 41 -3 6 -1 7 6
3 9 -6 9 -11 1 -21z m74 17 c3 -5 -1 -9 -9 -9 -8 0 -12 4 -9 9 3 4 7 8 9 8 2
0 6 -4 9 -8z m134 -14 c-2 -7 2 -12 8 -11 6 1 11 -5 11 -13 0 -7 -3 -14 -6
-14 -10 0 -30 37 -24 44 10 9 13 7 11 -6z m152 -13 c-7 -9 -15 -13 -17 -11 -7
7 7 26 19 26 6 0 6 -6 -2 -15z m-541 -16 c1 8 4 12 7 8 12 -11 -6 -25 -26 -20
-17 4 -18 8 -8 20 10 13 13 13 19 -4 5 -11 8 -13 8 -4z m490 18 c-2 -2 -11 -8
-20 -15 -12 -9 -16 -9 -16 1 0 7 9 14 20 14 11 1 18 1 16 0z m-129 -17 c0 -5
-5 -10 -11 -10 -5 0 -7 5 -4 10 3 6 8 10 11 10 2 0 4 -4 4 -10z m231 -7 c13
-16 12 -17 -3 -4 -10 7 -18 15 -18 17 0 8 8 3 21 -13z m-491 3 c0 -2 -7 -7
-16 -10 -8 -3 -12 -2 -9 4 6 10 25 14 25 6z m460 -5 c0 -5 -7 -11 -14 -14 -10
-4 -13 -1 -9 9 6 15 23 19 23 5z m-580 -20 c0 -5 10 -7 23 -5 13 3 8 -1 -11
-10 -18 -9 -31 -20 -27 -26 3 -5 2 -10 -3 -10 -5 0 -12 9 -15 21 -4 16 -2 19
10 15 11 -4 13 -2 9 9 -3 8 -1 15 4 15 6 0 10 -4 10 -9z m454 -3 c-6 -9 -44
-6 -44 3 0 4 11 6 24 5 13 0 22 -4 20 -8z m199 -8 c4 -14 10 -18 24 -14 17 6
17 6 1 -7 -9 -8 -19 -23 -22 -34 -3 -11 -4 -7 -2 8 3 22 -2 31 -18 37 -11 5
-15 9 -8 9 7 1 10 6 7 11 -3 6 -2 10 3 10 5 0 12 -9 15 -20z m-562 -13 c-10
-9 -11 -8 -5 6 3 10 9 15 12 12 3 -3 0 -11 -7 -18z m-171 5 c0 -5 -12 -14 -26
-20 -14 -7 -22 -17 -19 -22 3 -6 -1 -7 -9 -4 -21 8 -21 9 17 33 37 24 37 24
37 13z m237 -17 c-4 -8 -12 -15 -19 -14 -10 0 -10 2 0 6 6 2 12 12 12 21 0 8
3 13 6 9 4 -3 4 -13 1 -22z m373 4 c0 -6 -4 -7 -10 -4 -5 3 -10 11 -10 16 0 6
5 7 10 4 6 -3 10 -11 10 -16z m-63 -9 c1 -11 -2 -18 -8 -15 -11 7 -12 35 -1
35 4 0 8 -9 9 -20z m-511 -15 c3 -14 14 -29 23 -35 14 -8 13 -9 -5 -7 -12 0
-21 8 -22 21 0 12 -6 22 -12 24 -13 5 -13 22 0 22 5 0 12 -11 16 -25z m98 16
c-8 -8 -43 -8 -38 0 2 4 13 7 24 6 10 -1 17 -3 14 -6z m482 -29 c-3 -3 -12 1
-20 7 -10 8 -16 9 -21 1 -3 -5 -1 -10 6 -10 7 0 10 -3 6 -6 -11 -11 -25 6 -20
26 5 18 7 18 29 3 14 -9 22 -18 20 -21z m36 26 c-18 -18 -16 -62 3 -54 9 3 15
0 15 -9 0 -17 -16 -20 -25 -5 -4 6 -11 7 -17 4 -6 -4 -8 2 -3 17 3 13 9 32 11
42 3 9 10 17 17 17 8 0 8 -3 -1 -12z m58 -17 c0 -17 -6 -31 -16 -35 -10 -4
-13 -2 -7 7 11 17 13 38 3 32 -5 -3 -12 0 -16 6 -4 7 -3 9 4 5 6 -3 13 -2 17
4 10 17 15 11 15 -19z m110 -1 c0 -5 -4 -10 -10 -10 -5 0 -10 5 -10 10 0 6 5
10 10 10 6 0 10 -4 10 -10z m-880 -20 c0 -5 -9 -6 -20 -3 -11 3 -20 9 -20 13
0 5 9 6 20 3 11 -3 20 -9 20 -13z m140 10 c0 -5 -7 -7 -15 -4 -8 4 -15 8 -15
10 0 2 7 4 15 4 8 0 15 -4 15 -10z m595 0 c3 -5 1 -10 -4 -10 -6 0 -11 5 -11
10 0 6 2 10 4 10 3 0 8 -4 11 -10z m105 -21 c0 -10 -5 -21 -10 -24 -6 -4 -7
-13 -1 -23 4 -9 6 -24 3 -32 -4 -13 -3 -13 11 -1 9 7 14 17 11 22 -3 5 2 12
10 15 19 7 21 30 4 38 -7 3 -2 3 12 0 14 -4 28 -11 32 -17 9 -14 0 -29 -13
-22 -5 4 -9 -1 -9 -11 0 -14 -2 -15 -17 -3 -15 13 -15 12 -3 -10 12 -23 14
-23 25 -7 7 9 16 13 19 8 3 -4 -4 -16 -15 -25 -20 -18 -25 -37 -9 -37 6 0 10
-4 10 -10 0 -5 -7 -7 -16 -3 -10 4 -14 13 -10 29 7 26 -10 42 -27 25 -9 -9 -8
-14 3 -21 8 -5 11 -10 5 -10 -18 1 -42 25 -38 38 3 6 -1 12 -9 12 -10 0 -9 3
2 10 12 8 12 10 1 10 -11 0 -10 5 4 20 22 24 13 39 -10 16 -19 -19 -31 -20
-41 -4 -4 7 -3 8 4 4 6 -4 19 2 29 12 23 23 43 24 43 1z m-914 -26 c-10 -10
-19 5 -10 18 6 11 8 11 12 0 2 -7 1 -15 -2 -18z m227 -2 c-9 -11 -20 -18 -25
-15 -4 3 -8 0 -8 -5 0 -6 -4 -11 -9 -11 -6 0 -9 9 -8 20 1 23 8 25 25 8 9 -9
12 -8 12 5 0 9 7 17 15 17 12 0 12 -3 -2 -19z m823 5 c10 -8 17 -17 14 -19 -3
-3 -16 3 -29 14 -27 22 -15 26 15 5z m-1096 -21 c-13 -15 -35 -11 -24 6 3 5
10 7 15 4 5 -4 9 -1 9 6 0 7 3 9 6 6 4 -4 1 -13 -6 -22z m127 19 c-3 -3 -12
-4 -19 -1 -8 3 -5 6 6 6 11 1 17 -2 13 -5z m-42 -14 c-3 -5 -10 -10 -16 -10
-5 0 -9 5 -9 10 0 6 7 10 16 10 8 0 12 -4 9 -10z m108 -5 c-3 -9 -8 -14 -10
-11 -3 3 -2 9 2 15 9 16 15 13 8 -4z m687 1 c0 -8 4 -18 10 -21 6 -4 7 1 3 11
-4 11 -2 15 4 11 6 -4 13 -16 16 -27 5 -20 4 -20 -16 -7 -12 7 -28 17 -35 21
-7 4 -10 12 -7 17 9 14 25 11 25 -5z m-742 -3 c-1 -5 4 -19 11 -31 7 -13 10
-26 8 -29 -3 -2 -8 5 -12 16 -3 12 -11 19 -16 16 -5 -4 -9 3 -9 14 0 12 5 21
10 21 6 0 9 -3 8 -7z m-178 -13 c0 -5 -4 -10 -10 -10 -5 0 -10 5 -10 10 0 6 5
10 10 10 6 0 10 -4 10 -10z m86 -2 c3 -4 -1 -5 -10 -4 -8 1 -18 5 -22 8 -3 4
1 5 10 4 8 -1 18 -5 22 -8z m58 6 c-15 -6 -6 -44 10 -44 6 0 4 -5 -4 -10 -23
-15 -32 -12 -25 9 3 11 1 22 -5 26 -14 9 -2 25 18 24 9 0 12 -3 6 -5z m966 -4
c0 -5 -4 -10 -10 -10 -5 0 -10 5 -10 10 0 6 5 10 10 10 6 0 10 -4 10 -10z m96
-10 c9 0 12 -5 9 -10 -4 -6 -16 -8 -28 -4 -18 5 -20 4 -9 -7 6 -7 12 -20 11
-28 0 -11 -2 -12 -6 -3 -2 6 -14 12 -25 12 -20 0 -20 1 -5 18 10 10 14 22 10
27 -5 4 -2 5 5 1 7 -4 12 -2 13 6 0 10 2 10 6 1 2 -7 11 -13 19 -13z m-76 -19
c0 -6 -4 -12 -8 -15 -5 -3 -9 1 -9 9 0 8 4 15 9 15 4 0 8 -4 8 -9z m110 -1 c0
-5 -5 -10 -11 -10 -5 0 -7 5 -4 10 3 6 8 10 11 10 2 0 4 -4 4 -10z m-1326 -16
c-16 -13 -16 -15 -2 -10 15 5 16 3 5 -15 -11 -18 -13 -18 -25 -2 -11 15 -10
20 5 30 25 19 40 16 17 -3z m206 12 c0 -3 -4 -8 -10 -11 -5 -3 -10 -1 -10 4 0
6 5 11 10 11 6 0 10 -2 10 -4z m-113 -20 c-3 -8 1 -20 9 -26 13 -12 19 -7 15
14 -1 5 5 4 13 -4 14 -10 16 -10 17 6 0 11 3 14 6 6 6 -15 -16 -44 -28 -36 -5
3 -9 -1 -9 -8 0 -7 -9 -2 -19 11 -16 22 -19 51 -4 51 3 0 3 -6 0 -14z m1287
-2 c3 -8 11 -12 17 -8 7 4 10 1 7 -7 -6 -17 -34 -19 -30 -1 1 6 -2 12 -8 12
-5 0 -10 5 -10 10 0 16 17 12 24 -6z m-204 -4 c0 -5 -2 -10 -4 -10 -3 0 -8 5
-11 10 -3 6 -1 10 4 10 6 0 11 -4 11 -10z m-1223 -7 c-4 -3 2 -13 13 -20 11
-8 18 -19 15 -24 -4 -5 -1 -9 4 -9 6 0 11 -5 11 -11 0 -5 -5 -7 -12 -3 -8 5
-9 2 -5 -10 4 -9 3 -15 -2 -11 -5 3 -11 0 -13 -6 -2 -7 -9 -5 -17 5 -12 14
-12 16 1 11 24 -9 29 21 8 48 -17 21 -18 37 -2 37 3 0 2 -3 -1 -7z m233 -1 c0
-5 -7 -17 -16 -28 -8 -10 -14 -14 -11 -9 2 6 7 18 10 28 7 17 17 23 17 9z
m1070 -2 c0 -5 -7 -7 -15 -4 -11 5 -15 -1 -15 -20 0 -18 -5 -26 -17 -25 -11 0
-13 3 -5 6 6 2 12 16 12 29 0 17 6 24 20 24 11 0 20 -4 20 -10z m74 -15 c-17
-26 -36 -29 -40 -7 -1 7 0 8 2 3 3 -5 14 -1 25 10 27 27 33 24 13 -6z m-1422
-22 c11 -9 18 -11 18 -5 0 7 5 12 11 12 5 0 8 -4 5 -9 -4 -5 0 -12 6 -15 7 -2
3 -4 -10 -2 -12 1 -28 8 -34 14 -8 8 -15 9 -25 0 -11 -8 -12 -7 -7 6 8 20 13
20 36 -1z m145 -1 c9 -15 8 -19 -3 -19 -7 0 -11 4 -8 9 3 4 0 8 -5 8 -6 0 -11
5 -11 10 0 16 14 12 27 -8z m33 8 c0 -5 -2 -10 -4 -10 -3 0 -8 5 -11 10 -3 6
-1 10 4 10 6 0 11 -4 11 -10z m1190 0 c0 -5 -2 -10 -4 -10 -3 0 -8 5 -11 10
-3 6 -1 10 4 10 6 0 11 -4 11 -10z m140 1 c0 -5 -14 -11 -30 -13 -33 -5 -29 7
5 15 11 3 21 5 23 6 1 0 2 -3 2 -8z m-1580 -32 c-7 -11 -14 -18 -17 -15 -3 3
0 12 7 21 18 21 23 19 10 -6z m182 -15 c-3 -16 1 -30 9 -36 11 -7 10 -8 -5 -6
-11 2 -19 6 -18 11 1 4 2 21 2 38 0 16 4 28 9 25 4 -3 6 -17 3 -32z m95 11
c-16 -14 -34 -22 -40 -18 -8 5 -8 8 1 11 6 2 14 3 17 2 3 0 13 6 21 15 9 8 18
15 22 15 4 0 -6 -12 -21 -25z m1248 -4 c-3 -2 -11 2 -20 9 -11 9 -15 9 -15 1
0 -7 -5 -9 -11 -5 -8 4 -7 9 2 14 12 8 53 -10 44 -19z m135 18 c0 -5 -4 -8 -9
-5 -5 3 -11 -1 -15 -9 -7 -19 -23 -19 -23 0 0 8 4 12 8 9 4 -2 10 0 14 6 8 13
25 13 25 -1z m-1595 -20 c-4 -5 -12 -9 -18 -8 -9 0 -8 2 1 6 6 2 9 10 6 15 -4
7 -2 8 5 4 6 -4 9 -12 6 -17z m1384 -4 c12 5 13 3 5 -5 -13 -13 -54 3 -54 21
0 6 7 3 16 -6 9 -9 24 -13 33 -10z m151 0 c0 -2 -7 -5 -15 -9 -9 -3 -15 0 -15
9 0 9 6 12 15 9 8 -4 15 -7 15 -9z m-1637 -14 c-4 -16 -1 -19 16 -14 12 3 21
1 21 -4 0 -5 -14 -9 -30 -9 -23 0 -29 3 -25 14 5 12 3 13 -10 2 -9 -7 -18 -10
-22 -6 -3 3 -1 6 6 6 7 0 9 5 5 12 -4 6 -3 8 2 5 6 -3 16 -2 24 4 8 5 16 9 17
9 0 0 -1 -9 -4 -19z m257 4 c14 -16 10 -18 -14 -9 -9 3 -16 10 -16 15 0 14 16
11 30 -6z m1472 1 c10 -10 20 -11 34 -4 19 9 19 9 0 -6 -25 -20 -32 -20 -40
-1 -3 8 -10 15 -16 15 -6 0 -9 -4 -5 -9 3 -5 2 -12 -3 -15 -4 -2 -9 4 -9 15
-2 22 19 25 39 5z m-1662 -16 c0 -11 -4 -20 -9 -20 -5 0 -7 9 -4 20 3 11 7 20
9 20 2 0 4 -9 4 -20z m1525 10 c3 -5 1 -10 -4 -10 -6 0 -11 5 -11 10 0 6 2 10
4 10 3 0 8 -4 11 -10z m-1458 -15 c0 -8 -6 -15 -14 -15 -7 0 -13 -2 -13 -4 0
-2 -3 -12 -6 -20 -5 -12 -2 -15 10 -10 9 4 16 1 16 -6 0 -7 -8 -10 -20 -7 -11
3 -20 0 -20 -6 0 -17 -20 15 -20 32 0 8 6 11 15 7 8 -3 15 -1 15 4 0 6 -5 10
-12 10 -15 0 23 29 38 30 6 0 11 -7 11 -15z m1513 5 c0 -5 -5 -10 -11 -10 -5
0 -7 5 -4 10 3 6 8 10 11 10 2 0 4 -4 4 -10z m180 0 c0 -5 7 -10 15 -10 23 0
18 -16 -5 -17 -12 -1 -20 5 -21 15 0 14 -2 13 -9 -3 -6 -15 -9 -16 -9 -4 -1 9
2 19 6 22 10 10 23 8 23 -3z m-1930 -21 c0 -5 6 -7 13 -3 6 4 8 3 4 -1 -13
-15 -34 -14 -34 1 0 8 4 14 9 14 4 0 8 -5 8 -11z m1690 1 c24 -15 7 -18 -20
-3 -14 7 -18 13 -10 13 8 0 22 -4 30 -10z m120 -22 c0 -4 7 -8 15 -8 8 0 15
-4 15 -10 0 -15 -8 -12 -46 16 -19 15 -34 21 -34 16 0 -6 -6 -9 -14 -6 -8 3
-17 1 -21 -5 -6 -10 6 -15 31 -12 6 1 11 -5 11 -13 0 -13 -4 -13 -27 -1 -15 8
-27 21 -27 29 0 8 3 14 6 12 3 -2 15 0 26 4 21 7 65 -7 65 -22z m63 1 c-23 -8
-27 -4 -19 17 5 14 9 14 22 3 14 -12 14 -14 -3 -20z m-1812 -3 c-13 -16 -45
-10 -35 6 3 5 12 7 20 4 8 -3 14 0 14 6 0 6 3 8 6 5 4 -4 1 -13 -5 -21z m197
10 c-7 -8 -15 -12 -17 -11 -5 6 10 25 20 25 5 0 4 -6 -3 -14z m-294 -17 c-3
-5 -9 -7 -14 -4 -4 3 -13 -2 -20 -11 -11 -12 -11 -17 0 -27 10 -10 12 -9 7 6
-4 11 -1 17 9 17 11 0 14 -6 10 -16 -4 -10 -2 -14 6 -11 7 2 12 10 11 16 -2 6
2 11 7 11 6 0 10 -6 11 -12 0 -10 2 -10 6 0 6 15 39 16 49 1 4 -8 0 -9 -15 -4
-14 4 -23 2 -26 -8 -6 -13 -11 -15 -60 -18 -13 -1 -23 -7 -22 -13 1 -6 -4 -10
-11 -8 -8 1 -11 -6 -9 -20 2 -13 2 -17 0 -10 -3 6 -9 12 -14 12 -6 0 -7 -4 -4
-10 3 -5 1 -10 -5 -10 -8 0 -9 6 -4 18 4 9 7 27 7 39 -1 12 5 24 13 27 8 3 14
12 14 21 0 8 7 15 15 15 8 0 15 4 15 10 0 5 7 7 15 4 8 -4 12 -10 9 -15z
m2014 -8 c-2 -23 -6 -27 -23 -22 -17 4 -18 6 -2 9 9 2 17 12 17 23 0 10 2 19
5 19 3 0 4 -13 3 -29z m-73 -1 c-4 -12 -2 -20 5 -20 6 0 8 5 5 10 -3 6 -1 10
4 10 6 0 11 -7 11 -16 0 -12 -7 -15 -30 -12 -23 3 -30 1 -26 -9 3 -7 1 -13 -5
-13 -6 0 -9 7 -7 16 2 8 7 14 13 14 5 -1 12 8 17 19 10 27 21 28 13 1z m42 14
c-3 -3 -12 -4 -19 -1 -8 3 -5 6 6 6 11 1 17 -2 13 -5z m-1847 -16 c0 -6 -3 -8
-7 -5 -3 4 -13 1 -22 -6 -14 -11 -14 -10 -2 6 15 20 31 22 31 5z m65 -9 c-10
-15 -25 -10 -19 6 4 8 10 12 15 9 5 -3 7 -10 4 -15z m1925 -1 c0 -5 -4 -6 -10
-3 -5 3 -10 -3 -10 -13 0 -22 36 -37 44 -18 3 6 4 1 2 -11 -1 -11 -7 -28 -14
-36 -7 -8 -10 -23 -6 -33 5 -16 4 -16 -5 -4 -10 13 -15 8 -12 -12 0 -4 -6 -5
-14 -1 -13 5 -13 7 2 19 17 12 17 14 -1 31 -10 10 -16 12 -12 6 4 -7 2 -13 -3
-13 -6 0 -11 7 -11 16 0 21 -22 42 -39 36 -12 -4 -12 -3 -1 10 18 19 38 19 36
0 0 -8 5 -17 13 -20 11 -4 13 3 8 31 -5 31 -3 34 14 30 10 -3 19 -10 19 -15z
m-290 -3 c0 -8 -4 -15 -10 -15 -5 0 -7 7 -4 15 4 8 8 15 10 15 2 0 4 -7 4 -15z
m356 -16 c3 -5 -6 -5 -19 0 -14 6 -28 7 -33 3 -4 -4 -4 -2 -1 5 7 12 44 7 53
-8z m-2325 2 c-11 -7 -9 -10 8 -16 18 -5 19 -8 7 -21 -8 -8 -20 -14 -26 -14
-7 0 -10 -7 -6 -15 3 -8 2 -14 -2 -12 -4 1 -20 -10 -35 -25 -33 -33 -34 -33
-34 -12 0 9 9 19 19 22 10 2 18 11 18 19 0 8 -5 11 -12 7 -7 -4 -8 -3 -4 5 6
9 11 9 22 0 12 -9 13 -6 10 22 -4 30 -3 32 10 14 8 -10 17 -16 20 -12 4 4 2
13 -4 20 -12 14 -6 27 12 27 6 0 5 -4 -3 -9z m2014 0 c3 -5 0 -13 -6 -17 -8
-5 -9 -3 -4 6 6 10 4 12 -9 7 -10 -4 -15 -3 -11 3 8 13 22 13 30 1z m-1695
-11 c-8 -5 -19 -10 -25 -10 -5 0 -3 5 5 10 8 5 20 10 25 10 6 0 3 -5 -5 -10z
m1803 3 c-7 -2 -13 -9 -13 -14 0 -6 5 -7 10 -4 6 3 10 -1 10 -9 0 -21 -16 -20
-25 2 -6 16 -7 16 -20 -1 -9 -13 -14 -15 -17 -5 -4 12 34 36 57 36 6 0 4 -2
-2 -5z m-1893 -13 c-20 -13 -33 -13 -25 0 3 6 14 10 23 10 15 0 15 -2 2 -10z
m2141 1 c7 11 9 12 9 1 0 -8 -10 -16 -21 -19 -21 -6 -21 -7 -4 -20 17 -12 17
-13 2 -13 -9 0 -17 5 -17 10 0 6 -5 9 -11 8 -6 -2 -15 7 -19 19 -8 20 -7 21
22 11 24 -8 32 -8 39 3z m-2454 -21 c-1 -12 -5 -16 -10 -11 -5 5 -6 14 -3 20
11 16 15 13 13 -9z m33 16 c0 -3 -4 -8 -10 -11 -5 -3 -10 -1 -10 4 0 6 5 11
10 11 6 0 10 -2 10 -4z m2457 -18 c-3 -8 -6 -5 -6 6 -1 11 2 17 5 13 3 -3 4
-12 1 -19z m-2217 8 c0 -2 -7 -7 -16 -10 -8 -3 -12 -2 -9 4 6 10 25 14 25 6z
m2000 -17 c0 -5 -4 -9 -10 -9 -5 0 -10 7 -10 16 0 8 5 12 10 9 6 -3 10 -10 10
-16z m-2310 -6 c0 -14 -2 -15 -9 -4 -7 10 -10 10 -16 1 -4 -7 -2 -16 5 -20 6
-4 11 -10 11 -14 -1 -11 -25 -32 -46 -39 -19 -7 -19 -7 -1 7 10 9 18 27 18 43
0 34 5 43 24 43 8 0 14 -8 14 -17z m256 -15 c-9 -12 -16 -17 -16 -10 0 6 -7
12 -16 12 -8 0 -12 5 -9 10 5 8 11 7 21 -1 11 -9 15 -8 20 5 4 9 9 15 11 12 3
-3 -2 -15 -11 -28z m2347 22 c7 0 3 -6 -8 -12 -19 -11 -19 -11 0 -19 19 -7 18
-8 -2 -8 -13 -1 -23 3 -23 8 0 5 -3 17 -7 27 -5 14 -3 16 11 11 10 -4 23 -7
29 -7z m47 -16 c0 -2 -7 -4 -15 -4 -8 0 -15 4 -15 10 0 5 7 7 15 4 8 -4 15 -8
15 -10z m-380 -4 c0 -5 -4 -10 -9 -10 -6 0 -13 5 -16 10 -3 6 1 10 9 10 9 0
16 -4 16 -10z m-2374 -22 c4 -6 3 -8 -4 -4 -6 3 -13 2 -17 -4 -3 -5 -11 -10
-18 -10 -6 0 -2 7 9 15 23 18 21 17 30 3z m2409 2 c3 -6 -1 -7 -9 -4 -18 7
-21 14 -7 14 6 0 13 -4 16 -10z m120 0 c-3 -5 -12 -10 -18 -10 -7 0 -6 4 3 10
19 12 23 12 15 0z m212 -9 c-3 -13 1 -21 12 -24 14 -4 14 -5 -1 -6 -20 -1 -32
15 -24 34 8 22 19 18 13 -4z m-2727 -36 c-19 -31 -20 -39 -9 -46 8 -5 9 -9 3
-9 -5 0 -19 7 -30 16 -10 8 -14 13 -8 10 6 -3 21 12 35 33 13 22 26 37 28 36
2 -2 -7 -20 -19 -40z m204 29 c3 -8 2 -12 -4 -9 -6 3 -10 10 -10 16 0 14 7 11
14 -7z m2396 6 c-20 -13 -33 -13 -25 0 3 6 14 10 23 10 15 0 15 -2 2 -10z
m-2691 -9 c9 -2 -23 -31 -33 -30 -6 0 -6 3 2 6 10 4 9 8 -5 19 -17 13 -16 13
7 10 14 -3 27 -5 29 -5z m335 -6 c3 -8 1 -15 -4 -15 -6 0 -10 7 -10 15 0 8 2
15 4 15 2 0 6 -7 10 -15z m36 5 c0 -5 -4 -10 -9 -10 -6 0 -13 5 -16 10 -3 6 1
10 9 10 9 0 16 -4 16 -10z m2280 6 c0 -3 -4 -8 -10 -11 -5 -3 -10 -1 -10 4 0
6 5 11 10 11 6 0 10 -2 10 -4z m148 -37 c12 -22 22 -47 22 -54 0 -14 17 -15
39 -1 10 6 12 5 7 -2 -9 -15 9 -15 35 -2 13 7 19 7 20 0 1 -5 2 -15 3 -20 0
-6 8 -15 16 -20 13 -8 13 -10 -2 -10 -9 0 -19 9 -23 19 -5 15 -11 18 -33 12
-29 -8 -85 6 -77 19 3 5 -2 15 -10 23 -9 9 -12 23 -8 33 4 12 3 15 -5 10 -7
-4 -12 -5 -12 -2 0 2 -3 11 -6 20 -13 33 13 14 34 -25z m69 -3 c-8 -8 -19 -11
-26 -6 -9 5 -7 9 8 13 15 4 19 11 15 24 -5 17 -5 17 6 0 9 -13 8 -21 -3 -31z
m93 30 c0 -8 7 -20 16 -27 13 -11 17 -10 25 4 11 19 34 22 45 6 4 -7 0 -9 -14
-5 -13 5 -22 1 -26 -10 -4 -11 -2 -15 7 -11 21 8 16 -94 -6 -107 -12 -8 -20
-7 -29 3 -11 11 -9 12 10 6 13 -4 22 -2 22 4 0 6 -6 12 -12 12 -7 1 -17 2 -23
4 -5 1 -15 3 -21 3 -25 4 -27 82 -2 82 5 0 5 -6 0 -16 -13 -22 -3 -56 14 -50
7 3 16 0 20 -6 4 -7 10 -5 16 6 12 22 1 38 -22 31 -16 -5 -19 -1 -17 22 1 20
-2 27 -13 25 -8 -2 -12 0 -8 4 4 4 1 12 -8 18 -13 10 -13 12 5 13 12 1 21 -4
21 -11z m-2880 -5 c0 -16 -27 -31 -45 -24 -13 4 -16 3 -11 -5 4 -7 1 -12 -8
-12 -27 0 -18 19 17 34 39 17 47 19 47 7z m120 0 c0 -6 -4 -12 -8 -15 -5 -3
-9 1 -9 9 0 8 4 15 9 15 4 0 8 -4 8 -9z m-261 -22 c-5 -10 -6 -26 -2 -36 3
-10 3 -15 -2 -11 -4 4 -16 3 -25 -2 -13 -7 -20 -6 -23 5 -4 9 -1 12 8 9 14 -6
39 29 28 40 -14 13 -41 5 -46 -14 -3 -11 -11 -20 -19 -20 -10 0 -10 2 2 10 8
5 11 13 6 17 -4 4 -16 -2 -27 -15 -10 -13 -23 -21 -29 -17 -5 3 -10 1 -10 -4
0 -6 5 -11 11 -11 5 0 7 -5 4 -10 -7 -11 -45 30 -45 47 0 4 5 1 11 -7 7 -11
12 -12 15 -3 3 7 12 9 20 6 8 -3 14 -1 14 5 0 14 49 31 87 29 27 -1 30 -4 22
-18z m341 17 c0 -3 -4 -8 -10 -11 -5 -3 -10 -1 -10 4 0 6 5 11 10 11 6 0 10
-2 10 -4z m2335 -6 c-3 -5 -12 -10 -18 -10 -7 0 -6 4 3 10 19 12 23 12 15 0z
m315 0 c0 -5 -7 -10 -16 -10 -8 0 -12 5 -9 10 3 6 10 10 16 10 5 0 9 -4 9 -10z
m-162 -18 c2 -7 -3 -12 -12 -12 -10 0 -13 -6 -10 -15 4 -8 1 -15 -5 -15 -6 0
-11 9 -11 20 0 11 5 20 11 20 5 0 7 5 3 11 -4 7 -1 10 6 7 8 -2 16 -10 18 -16z
m-2511 -6 c4 -5 2 -6 -4 -2 -7 4 -13 2 -13 -3 0 -16 -27 -13 -33 2 -6 16 37
17 50 3z m2853 4 c0 -5 -7 -10 -15 -10 -8 0 -15 -8 -15 -17 0 -14 -2 -15 -9
-4 -5 8 -14 10 -21 6 -9 -5 -11 -4 -6 3 4 7 14 12 22 12 8 0 12 5 9 10 -3 6 3
10 14 10 12 0 21 -4 21 -10z m-2916 -15 c3 -8 1 -15 -4 -15 -6 0 -10 7 -10 15
0 8 2 15 4 15 2 0 6 -7 10 -15z m2733 -2 c-2 -2 -14 -5 -25 -8 -14 -2 -19 1
-16 10 3 7 14 11 25 8 11 -3 18 -7 16 -10z m260 -8 c0 -17 -6 -18 -27 -5 -11
7 -11 10 -2 10 7 0 10 4 7 10 -3 5 0 7 8 4 7 -2 14 -11 14 -19z m-3224 -17
c-2 -5 1 -15 7 -23 7 -8 9 -15 4 -15 -5 0 -3 -4 4 -9 11 -7 11 -9 -2 -14 -10
-4 -16 -1 -16 8 0 8 -10 16 -22 16 -22 2 -22 2 -2 6 17 3 21 10 18 36 -3 22
-1 28 5 17 6 -8 7 -18 4 -22z m160 17 c-3 -9 -8 -14 -10 -11 -3 3 -2 9 2 15 9
16 15 13 8 -4z m2737 -1 c0 -2 -7 -4 -15 -4 -8 0 -15 4 -15 10 0 5 7 7 15 4 8
-4 15 -8 15 -10z m364 8 c3 -5 -1 -9 -9 -9 -8 0 -15 4 -15 9 0 4 4 8 9 8 6 0
12 -4 15 -8z m-3508 -23 c-17 -5 -32 -6 -35 -4 -2 3 1 5 8 5 7 0 10 4 7 9 -3
4 7 6 22 3 l27 -5 -29 -8z m3074 -13 c0 -3 -7 -3 -15 0 -8 4 -15 13 -15 21 0
12 2 12 15 -1 8 -8 15 -17 15 -20z m335 24 c-4 -6 -11 -8 -16 -5 -5 4 -9 1 -9
-6 0 -7 -3 -10 -6 -6 -9 9 5 27 22 27 8 0 12 -5 9 -10z m156 -8 c-7 -2 -18 1
-23 6 -8 8 -4 9 13 5 13 -4 18 -8 10 -11z m-3626 -15 c6 -5 3 -7 -7 -3 -10 3
-18 1 -18 -4 0 -5 8 -14 18 -19 9 -6 12 -11 6 -11 -6 0 -19 9 -28 19 -11 12
-25 17 -38 13 -14 -3 -19 -1 -14 6 3 6 18 9 31 6 15 -3 25 0 25 7 0 7 3 8 8 3
4 -5 12 -13 17 -17z m123 -2 c-3 -3 -9 2 -12 12 -6 14 -5 15 5 6 7 -7 10 -15
7 -18z m282 4 c10 -15 4 -29 -11 -29 -5 0 -9 7 -7 16 4 23 -19 30 -24 7 -3
-16 -5 -15 -10 3 -5 19 -2 22 19 19 14 -1 29 -8 33 -16z m3176 -31 c-15 -11
-54 -10 -60 1 -3 5 2 15 11 22 14 12 16 12 11 -1 -4 -11 0 -16 13 -16 11 0 17
6 15 12 -3 7 -2 15 2 19 3 3 9 -2 13 -12 3 -10 1 -21 -5 -25z m101 36 c-3 -3
-12 -4 -19 -1 -8 3 -5 6 6 6 11 1 17 -2 13 -5z m-3504 -24 c-3 -12 -8 -19 -11
-16 -5 6 5 36 12 36 2 0 2 -9 -1 -20z m42 -5 c0 -14 -6 -25 -13 -25 -7 0 -11
-4 -7 -9 3 -6 -4 -8 -16 -6 -15 3 -19 0 -15 -11 3 -9 1 -12 -4 -9 -16 10 -12
38 4 32 17 -7 41 18 32 32 -3 5 0 12 6 14 7 3 13 6 13 6 0 1 0 -10 0 -24z
m128 5 c9 -11 13 -20 7 -20 -5 0 -14 9 -20 20 -6 11 -9 20 -8 20 2 0 11 -9 21
-20z m3089 3 c20 5 21 4 7 -6 -9 -7 -14 -18 -12 -24 3 -7 0 -13 -6 -13 -6 0
-11 7 -11 15 0 8 -7 15 -15 15 -8 0 -15 7 -15 16 0 13 3 14 15 4 8 -7 25 -10
37 -7z m249 -3 c-18 -15 -19 -20 -7 -20 19 0 21 -11 4 -29 -11 -11 -9 -12 9
-6 18 5 22 3 17 -9 -5 -12 -11 -13 -24 -6 -28 15 -40 12 -40 -11 0 -12 -4 -17
-11 -14 -13 8 14 51 30 48 14 -4 14 10 0 24 -8 8 -4 15 12 27 32 22 39 19 10
-4z m58 -2 c0 -16 -2 -18 -6 -8 -3 8 -11 18 -17 22 -7 5 -4 8 7 8 11 0 17 -7
16 -22z m-3914 2 c-3 -5 -12 -10 -18 -10 -7 0 -6 4 3 10 19 12 23 12 15 0z
m251 -5 c-16 -17 -46 -20 -46 -5 0 5 7 7 15 4 8 -4 15 -1 15 5 0 6 7 11 16 11
14 0 14 -2 0 -15z m3566 7 c-7 -5 -10 -16 -7 -24 4 -9 2 -19 -4 -23 -7 -3 -8
0 -5 10 5 12 2 14 -12 8 -18 -6 -18 -6 0 15 11 12 24 22 30 22 6 0 6 -4 -2 -8z
m178 -44 c0 -8 -5 -6 -11 5 -6 9 -14 15 -18 13 -4 -3 -8 5 -8 16 l-2 21 20
-21 c10 -12 19 -27 19 -34z m-4033 28 c0 -11 -5 -13 -19 -5 -13 7 -18 6 -18
-2 0 -7 -3 -10 -6 -6 -10 10 6 27 25 27 10 0 18 -7 18 -14z m101 -7 c11 0 12
-2 4 -6 -18 -7 -4 -23 16 -17 9 4 4 -3 -12 -14 -17 -12 -33 -19 -37 -17 -4 3
-9 -6 -11 -20 -3 -14 -1 -25 3 -25 5 0 9 5 9 10 0 6 5 10 11 10 8 0 8 -5 -1
-15 -22 -26 -40 -18 -34 14 5 25 3 29 -12 27 -11 -2 -14 -1 -7 1 7 2 9 12 6
21 -4 13 -2 12 11 -3 17 -20 17 -20 10 4 -4 16 -3 21 5 17 6 -4 11 -15 11 -24
0 -13 2 -14 13 -3 10 10 7 17 -13 33 -17 15 -19 19 -7 15 10 -4 26 -7 35 -8z
m246 -29 c10 -13 9 -13 -6 -1 -10 7 -18 21 -17 30 0 13 1 14 6 1 3 -8 11 -22
17 -30z m3331 30 c-3 -5 0 -10 7 -10 9 0 9 -3 -2 -10 -8 -5 -19 -10 -25 -10
-5 0 -3 5 5 10 8 5 11 10 7 10 -9 0 1 20 9 20 3 0 2 -4 -1 -10z m-3780 -10 c3
-5 16 -10 28 -10 20 -1 20 -2 5 -11 -10 -5 -18 -15 -18 -22 0 -7 4 -6 10 3 7
12 9 10 7 -8 0 -12 -5 -22 -9 -22 -4 0 -8 -5 -8 -11 0 -6 7 -9 15 -5 8 3 15 1
15 -4 0 -11 -48 -25 -57 -16 -4 3 0 6 8 6 11 0 15 11 14 43 -1 28 -5 42 -15
42 -7 0 -15 6 -17 13 -5 14 13 16 22 2z m299 4 c9 -3 16 -12 16 -19 0 -14 17
-15 36 -2 7 4 14 -1 17 -13 4 -17 1 -19 -21 -14 -15 4 -32 13 -38 20 -6 8 -16
14 -23 14 -6 0 -11 5 -11 10 0 12 3 12 24 4z m46 -15 c0 -6 -4 -7 -10 -4 -5 3
-10 11 -10 16 0 6 5 7 10 4 6 -3 10 -11 10 -16z m55 11 c-3 -5 -12 -10 -18
-10 -7 0 -6 4 3 10 19 12 23 12 15 0z m3508 -4 c4 -10 0 -12 -14 -9 -10 3 -16
9 -13 14 8 13 21 11 27 -5z m-3323 0 c0 -3 -4 -8 -10 -11 -5 -3 -10 -1 -10 4
0 6 5 11 10 11 6 0 10 -2 10 -4z m3148 -27 c11 0 13 -2 4 -6 -22 -9 -42 5 -35
24 7 17 8 17 11 1 2 -10 11 -18 20 -19z m342 15 c0 -15 -26 -12 -42 4 -9 9 -6
12 15 10 15 -1 27 -8 27 -14z m-3520 2 c0 -2 -7 -7 -16 -10 -8 -3 -12 -2 -9 4
6 10 25 14 25 6z m3645 -6 c-3 -5 -1 -10 4 -10 6 0 11 -5 11 -11 0 -8 -5 -8
-15 1 -13 11 -12 30 1 30 3 0 2 -4 -1 -10z m105 -29 c3 -2 -3 -1 -12 2 -10 4
-18 2 -18 -3 0 -5 9 -11 20 -13 18 -4 18 -4 -2 -3 -15 1 -24 10 -29 30 -8 28
-8 28 14 10 12 -11 24 -21 27 -23z m-3900 8 c0 -6 -4 -7 -10 -4 -5 3 -10 11
-10 16 0 6 5 7 10 4 6 -3 10 -11 10 -16z m3487 -2 c-1 -7 5 -11 13 -9 13 3 13
1 1 -10 -11 -11 -14 -11 -18 0 -4 10 -8 10 -19 1 -10 -8 -14 -8 -14 0 0 6 5
11 11 11 6 0 9 7 6 14 -4 10 -1 13 8 10 8 -3 13 -11 12 -17z m209 -1 c0 -13
-4 -22 -8 -20 -9 6 -6 44 3 44 4 0 6 -11 5 -24z m144 14 c0 -5 -2 -10 -4 -10
-3 0 -8 5 -11 10 -3 6 -1 10 4 10 6 0 11 -4 11 -10z m-4337 -15 c-3 -9 -8 -14
-10 -11 -3 3 -2 9 2 15 9 16 15 13 8 -4z m79 -2 c9 -10 9 -13 0 -13 -7 0 -12
5 -12 11 0 6 -8 8 -19 4 -11 -3 -22 -2 -24 3 -9 13 41 8 55 -5z m114 4 c4 -3
-4 -4 -16 -2 -30 6 -40 16 -12 12 12 -2 24 -6 28 -10z m220 -14 c-6 -6 -36 9
-36 18 0 5 9 4 20 -3 10 -7 18 -14 16 -15z m3521 12 c0 -8 -4 -15 -9 -15 -10
0 -11 14 -1 23 9 10 10 9 10 -8z m206 -8 c7 3 10 4 7 0 -3 -3 -8 -5 -11 -4 -4
1 -17 -7 -30 -18 -13 -11 -19 -14 -14 -5 15 26 30 38 33 29 2 -5 9 -6 15 -2z
m-3803 -7 c9 -4 25 -7 45 -9 17 -2 15 -4 -8 -13 -21 -7 -32 -6 -44 4 -12 9
-15 9 -9 1 4 -7 3 -13 -2 -13 -5 0 -12 9 -15 19 -4 17 7 21 33 11z m3906 -22
c1 -17 -3 -25 -8 -20 -14 14 -17 49 -5 49 7 0 12 -13 13 -29z m-4023 -19 c-5
-4 -24 -9 -43 -12 -19 -2 -27 -2 -17 0 9 2 17 8 17 13 0 5 7 7 15 4 18 -7 20
7 3 26 -7 8 -3 6 10 -5 12 -10 19 -22 15 -26z m-133 25 c0 -8 -19 -13 -24 -6
-3 5 1 9 9 9 8 0 15 -2 15 -3z m85 -4 c-3 -5 -12 -10 -18 -10 -7 0 -6 4 3 10
19 12 23 12 15 0z m4002 4 c-3 -3 -12 -4 -19 -1 -8 3 -5 6 6 6 11 1 17 -2 13
-5z m-4170 -30 c-3 -3 -12 -4 -19 -1 -8 3 -5 6 6 6 11 1 17 -2 13 -5z m43 -4
c0 -5 -5 -10 -11 -10 -5 0 -7 5 -4 10 3 6 8 10 11 10 2 0 4 -4 4 -10z m4265 0
c-3 -5 2 -10 12 -10 14 0 15 -2 4 -9 -7 -5 -11 -13 -7 -19 3 -5 0 -12 -7 -15
-8 -3 -11 5 -10 27 2 37 2 36 9 36 3 0 2 -4 -1 -10z m-4218 -36 c-3 -3 -12 -4
-19 -1 -8 3 -5 6 6 6 11 1 17 -2 13 -5z m4300 -16 c-3 -8 -6 -5 -6 6 -1 11 2
17 5 13 3 -3 4 -12 1 -19z m-4377 -13 c0 -17 -2 -18 -25 -9 -13 5 -14 8 -3 15
19 13 28 11 28 -6z m4320 -5 c0 -5 -5 -10 -11 -10 -5 0 -7 5 -4 10 3 6 8 10
11 10 2 0 4 -4 4 -10z m-4296 -16 c3 -8 2 -12 -4 -9 -6 3 -10 10 -10 16 0 14
7 11 14 -7z m62 4 c4 -7 4 -10 -1 -6 -4 4 -17 3 -29 -3 -20 -10 -20 -10 -2 5
24 19 23 19 32 4z m4185 -2 c5 3 9 0 9 -6 0 -15 -23 -7 -26 8 -1 7 0 8 3 2 2
-5 9 -8 14 -4z m-4296 -5 c3 -5 1 -12 -5 -16 -5 -3 -10 1 -10 9 0 18 6 21 15
7z m4415 -1 c0 8 3 10 7 7 3 -4 -3 -16 -15 -27 l-22 -21 2 25 c2 19 5 22 15
14 9 -8 13 -7 13 2z m-4397 -38 c-3 -12 -13 -22 -22 -22 -14 0 -14 2 -1 10 8
5 11 10 6 10 -5 0 -3 7 4 15 16 20 21 15 13 -13z m74 13 c0 -9 -11 -18 -24
-21 -12 -4 -20 -11 -16 -17 3 -6 1 -7 -6 -3 -14 9 -5 26 14 26 7 0 15 7 19 15
7 19 13 19 13 0z m4204 -49 c13 -14 11 -23 -4 -23 -9 0 -14 13 -14 36 0 20 2
27 4 16 3 -11 9 -24 14 -29z m129 40 c0 -3 -4 -8 -10 -11 -5 -3 -10 -1 -10 4
0 6 5 11 10 11 6 0 10 -2 10 -4z m-50 -16 c0 -5 -2 -10 -4 -10 -3 0 -8 5 -11
10 -3 6 -1 10 4 10 6 0 11 -4 11 -10z m-4271 -7 c-3 -19 2 -27 10 -15 6 11 10
9 14 -7 4 -18 2 -19 -14 -10 -10 5 -19 6 -19 2 0 -4 -6 -1 -12 5 -10 10 -10
15 2 22 18 12 20 12 19 3z m-51 -23 c15 0 15 -2 2 -10 -12 -8 -11 -10 8 -11
12 -1 27 -3 32 -4 6 -1 15 -3 21 -4 7 0 9 -12 7 -26 -3 -14 -1 -25 4 -25 5 0
6 -5 2 -11 -4 -8 -9 -7 -15 2 -8 12 -11 11 -19 -1 -7 -11 -12 -12 -20 -4 -9 9
-4 13 15 18 26 7 27 8 10 26 -19 21 -55 27 -55 10 0 -5 7 -10 16 -10 18 0 10
-16 -15 -30 -17 -9 -18 -6 -11 25 7 30 5 38 -14 51 -17 13 -17 15 -3 10 10 -3
26 -6 35 -6z m4282 -31 c0 -6 -4 -7 -10 -4 -5 3 -10 11 -10 16 0 6 5 7 10 4 6
-3 10 -11 10 -16z m66 -27 c-14 -15 -15 -13 -3 17 8 23 13 28 15 16 2 -10 -3
-25 -12 -33z m-4379 25 c0 -7 -9 -14 -19 -14 -20 -2 -25 13 -5 20 20 9 24 8
24 -6z m4329 -38 c19 -22 19 -22 -3 -8 -13 8 -23 17 -23 21 0 12 6 9 26 -13z
m-40 -11 c4 -6 3 -8 -4 -4 -6 3 -15 -2 -21 -11 -9 -16 -10 -16 -11 -1 0 9 6
19 13 21 6 3 13 6 14 6 1 1 5 -4 9 -11z m-4295 -35 c13 -16 12 -17 -3 -4 -10
7 -18 15 -18 17 0 8 8 3 21 -13z m80 3 c8 4 9 3 5 -4 -4 -7 -2 -12 3 -12 6 0
11 5 11 10 0 6 5 10 10 10 17 0 11 -18 -9 -25 -26 -8 -34 -45 -13 -62 15 -11
13 -12 -11 -3 -22 8 -29 7 -33 -5 -4 -8 -11 -12 -17 -8 -6 4 -8 0 -4 -10 3
-10 2 -17 -3 -17 -11 0 -13 13 -10 45 2 19 1 20 -13 1 -13 -18 -14 -17 -15 12
0 18 4 35 10 38 7 5 9 1 5 -9 -6 -17 2 -21 33 -18 13 2 13 1 0 -8 -8 -5 -11
-13 -7 -17 9 -9 48 26 41 37 -2 4 -12 5 -21 2 -10 -4 -14 -2 -10 4 4 6 1 13
-5 16 -7 2 -10 8 -6 12 4 4 15 0 24 -9 24 -24 31 -10 8 16 -14 17 -15 19 -2 9
9 -7 23 -9 29 -5z m4224 0 c8 -7 11 -16 8 -20 -4 -3 1 -6 10 -6 11 0 14 5 10
18 -6 15 -5 15 11 3 13 -11 14 -16 4 -22 -22 -14 -35 -10 -52 16 -18 27 -13
33 9 11z m91 -43 c-3 -4 -6 -1 -6 6 0 7 -4 9 -10 6 -11 -7 -14 8 -3 19 4 3 11
-1 16 -9 5 -9 6 -19 3 -22z m-4276 -2 c0 -12 -20 -25 -27 -18 -7 7 6 27 18 27
5 0 9 -4 9 -9z m4154 -6 c3 -8 1 -15 -3 -15 -5 0 -11 7 -15 15 -3 8 -1 15 3
15 5 0 11 -7 15 -15z m56 -10 c-7 -9 -15 -13 -19 -10 -3 3 1 10 9 15 21 14 24
12 10 -5z m61 -42 c-10 -17 -10 -17 -11 0 0 9 -8 18 -17 18 -17 1 -17 2 0 6 9
2 17 10 17 16 0 7 5 4 11 -5 7 -12 7 -24 0 -35z m-86 17 c5 -8 11 -7 21 1 15
12 17 4 6 -22 -6 -13 -11 -13 -32 -2 -15 7 -19 13 -10 14 10 0 8 3 -5 9 -16 7
-17 9 -3 9 9 1 20 -4 23 -9z m-4229 -22 c4 -7 3 -8 -4 -4 -7 4 -12 3 -12 -2 0
-13 28 -23 32 -12 2 6 9 5 18 0 13 -8 12 -10 -2 -10 -21 0 -22 -4 -8 -29 5
-10 11 -29 14 -42 2 -13 7 -33 11 -44 6 -16 5 -17 -4 -5 -9 13 -11 13 -12 0
-1 -8 -1 -22 0 -30 1 -12 0 -12 -7 -2 -5 7 -14 12 -21 10 -7 -2 -17 6 -21 18
-6 15 -4 21 6 21 8 0 14 -4 14 -9 0 -4 4 -8 9 -8 12 0 19 41 10 60 -4 8 -10
23 -13 33 -4 11 -11 15 -17 11 -8 -4 -9 -3 -5 4 8 14 -3 15 -22 3 -11 -7 -11
-11 2 -24 9 -8 16 -19 16 -23 0 -4 -3 -4 -7 -1 -3 4 -12 2 -19 -4 -8 -7 -14
-7 -19 1 -3 5 -1 10 4 10 6 0 11 5 11 11 0 5 -4 8 -8 5 -5 -3 -9 1 -9 9 0 8 9
17 19 21 10 3 18 14 18 25 0 21 15 25 26 7z m4191 -9 c2 -16 -1 -19 -9 -11 -5
5 -7 15 -4 21 10 15 12 14 13 -10z m100 8 c0 -8 -6 -14 -13 -14 -7 0 -10 6 -7
14 3 7 8 13 12 13 4 0 8 -6 8 -13z m-4367 -40 c0 -5 -4 -5 -10 -2 -5 3 -10 14
-10 23 0 15 2 15 10 2 5 -8 10 -19 10 -23z m4350 -9 c0 -9 -3 -10 -43 -12 -16
-1 -30 1 -33 5 -2 4 10 6 26 5 17 -1 30 1 30 6 0 4 -7 8 -15 8 -8 0 -15 5 -15
11 0 5 -5 7 -12 3 -6 -4 -8 -3 -4 4 7 11 66 -16 66 -30z m-87 -8 c3 -11 1 -20
-4 -20 -5 0 -9 9 -9 20 0 11 2 20 4 20 2 0 6 -9 9 -20z m116 -4 c7 -8 8 -17 3
-20 -6 -3 -12 3 -15 14 -6 24 -4 25 12 6z m-30 -32 c2 -2 -4 -4 -14 -4 -15 0
-16 -2 -4 -17 13 -17 13 -17 -6 -3 -11 8 -23 20 -27 25 -5 6 -8 4 -8 -5 0 -9
5 -21 12 -28 8 -8 8 -12 1 -12 -12 0 -23 23 -23 46 0 10 8 12 33 7 17 -3 34
-7 36 -9z m-4264 -14 c3 -5 1 -10 -4 -10 -6 0 -11 5 -11 10 0 6 2 10 4 10 3 0
8 -4 11 -10z m4278 -15 c4 -8 3 -16 -1 -19 -4 -3 -9 4 -9 15 -2 23 3 25 10 4z
m27 5 c0 -5 -2 -10 -4 -10 -3 0 -8 5 -11 10 -3 6 -1 10 4 10 6 0 11 -4 11 -10z
m-4355 -10 c3 -5 1 -10 -4 -10 -6 0 -11 5 -11 10 0 6 2 10 4 10 3 0 8 -4 11
-10z m4235 0 c0 -5 -2 -10 -4 -10 -3 0 -8 5 -11 10 -3 6 -1 10 4 10 6 0 11 -4
11 -10z m-4263 -21 c9 -9 8 -15 -2 -25 -19 -19 -30 -18 -14 2 10 13 10 17 -2
25 -8 5 -9 9 -3 9 5 0 15 -5 21 -11z m4269 -10 c-15 -9 -16 -13 -5 -20 10 -6
10 -9 2 -9 -7 0 -17 8 -22 18 -8 15 -5 18 17 20 24 1 25 0 8 -9z m104 -18 c0
-29 -15 -33 -16 -5 -1 13 2 24 7 24 5 0 9 -9 9 -19z m-75 -1 c3 -5 1 -10 -4
-10 -6 0 -11 5 -11 10 0 6 2 10 4 10 3 0 8 -4 11 -10z m42 -10 c1 -11 -2 -18
-7 -15 -4 3 -10 -2 -13 -9 -3 -8 -1 -17 6 -20 7 -2 5 -5 -5 -5 -9 -1 -22 -3
-30 -6 -7 -3 -19 -1 -27 4 -12 8 -11 12 4 27 17 17 17 17 11 -4 -11 -35 12
-26 35 13 12 19 22 35 23 35 1 0 2 -9 3 -20z m-4307 6 c0 -2 -7 -6 -15 -10 -8
-3 -15 -1 -15 4 0 6 7 10 15 10 8 0 15 -2 15 -4z m48 -13 c-1 -5 3 -18 10 -30
12 -21 0 -44 -15 -29 -4 3 -1 6 6 6 10 0 9 6 -2 24 -9 13 -13 26 -10 30 9 8
13 8 11 -1z m-26 -55 c-2 -10 -8 -18 -14 -18 -5 0 -4 9 2 20 9 16 8 22 -5 26
-8 3 -12 10 -9 16 9 14 32 -23 26 -44z m62 36 c8 -21 8 -24 -3 -24 -5 0 -11 9
-14 20 -6 24 8 27 17 4z m4256 -24 c0 -17 -2 -19 -14 -8 -14 13 -12 28 5 28 5
0 9 -9 9 -20z m-4355 -10 c-2 -12 5 -30 17 -42 17 -17 18 -20 4 -15 -10 4 -27
2 -39 -4 -21 -9 -21 -9 -3 5 18 14 14 42 -5 31 -5 -4 -9 1 -9 10 0 11 5 15 14
12 10 -4 13 -1 9 9 -3 7 0 14 5 14 6 0 9 -9 7 -20z m4230 1 c3 -5 2 -12 -3
-15 -5 -3 -9 1 -9 9 0 17 3 19 12 6z m-4128 -23 c-3 -8 -6 -5 -6 6 -1 11 2 17
5 13 3 -3 4 -12 1 -19z m4156 -19 c-6 -6 -19 -9 -29 -6 -16 4 -15 5 4 6 12 0
22 6 22 12 0 5 -5 7 -12 3 -7 -5 -8 -3 -3 5 5 9 10 10 18 2 8 -8 8 -14 0 -22z
m47 15 c0 -2 -7 -4 -15 -4 -8 0 -15 4 -15 10 0 5 7 7 15 4 8 -4 15 -8 15 -10z
m22 -6 c-7 -7 -12 -8 -12 -2 0 14 12 26 19 19 2 -3 -1 -11 -7 -17z m28 -12 c0
-3 -4 -8 -10 -11 -5 -3 -10 -1 -10 4 0 6 5 11 10 11 6 0 10 -2 10 -4z m-4290
-22 c0 -8 -5 -12 -10 -9 -6 4 -8 11 -5 16 9 14 15 11 15 -7z m35 -5 c-5 -15
-4 -19 4 -15 22 14 10 -19 -13 -36 -23 -17 -24 -17 -30 4 -3 12 -8 19 -12 15
-4 -3 -15 0 -26 7 -11 8 -29 12 -41 10 -20 -4 -20 -4 -3 4 18 8 77 -5 92 -21
14 -14 25 -6 19 13 -3 11 -3 24 0 30 11 18 17 11 10 -11z m4185 11 c0 -6 -7
-13 -16 -17 -8 -3 -13 -12 -10 -19 3 -9 -1 -14 -12 -14 -10 0 -23 -4 -30 -10
-8 -7 -9 -7 -3 1 5 6 7 18 4 25 -5 12 7 18 23 12 3 -2 10 5 15 15 11 19 29 23
29 7z m35 -8 c-3 -3 -11 0 -18 7 -9 10 -8 11 6 5 10 -3 15 -9 12 -12z m-8 -44
c-2 -7 -1 -20 4 -29 6 -11 4 -21 -6 -29 -19 -16 -19 -32 -1 -28 8 2 15 0 15
-4 3 -26 -2 -27 -29 -8 -16 12 -30 18 -30 14 0 -5 -5 -3 -12 4 -9 9 -15 9 -27
-1 -14 -10 -14 -10 -3 5 8 10 9 19 3 22 -5 3 -12 0 -14 -6 -4 -9 -6 -7 -6 3
-1 11 7 17 23 17 17 0 23 -5 19 -14 -3 -8 0 -14 6 -14 6 0 11 6 11 13 0 12 39
67 48 67 2 0 2 -6 -1 -12z m-52 -18 c3 -5 -1 -10 -10 -10 -9 0 -13 5 -10 10 3
6 8 10 10 10 2 0 7 -4 10 -10z m85 -6 c0 -8 -5 -12 -10 -9 -6 4 -8 11 -5 16 9
14 15 11 15 -7z m-4335 -4 c-3 -5 -12 -7 -20 -3 -21 7 -19 13 6 13 11 0 18 -4
14 -10z m39 -16 c12 -4 13 -11 6 -24 -5 -9 -6 -21 -2 -25 4 -5 1 -5 -6 -1 -7
5 -11 14 -8 21 2 7 -1 18 -7 24 -12 12 -7 14 17 5z m-34 -29 c0 -8 -4 -15 -8
-15 -5 0 -9 7 -9 15 0 8 4 15 9 15 4 0 8 -7 8 -15z m110 -15 c0 -11 -2 -20 -4
-20 -2 0 -6 9 -9 20 -3 11 -1 20 4 20 5 0 9 -9 9 -20z m-30 7 c0 -2 -10 -12
-22 -23 l-23 -19 19 23 c18 21 26 27 26 19z m4141 -40 c-10 -9 -11 -8 -5 6 3
10 9 15 12 12 3 -3 0 -11 -7 -18z m-4200 -10 c-10 -9 -11 -8 -5 6 3 10 9 15
12 12 3 -3 0 -11 -7 -18z m4241 6 c-6 -2 -10 -9 -6 -14 3 -5 0 -9 -5 -9 -12 0
-14 13 -4 23 3 4 11 7 17 6 6 0 5 -3 -2 -6z m58 -7 c0 -3 -4 -8 -10 -11 -5 -3
-10 -1 -10 4 0 6 5 11 10 11 6 0 10 -2 10 -4z m-96 -21 c18 -13 18 -14 -3 -12
-11 1 -21 5 -21 10 0 4 -4 5 -10 2 -5 -3 -10 -1 -10 4 0 15 21 13 44 -4z m91
-34 c-6 -6 -35 27 -35 39 0 7 9 2 19 -11 11 -13 18 -26 16 -28z m-4230 29 c-3
-5 -11 -10 -16 -10 -6 0 -7 5 -4 10 3 6 11 10 16 10 6 0 7 -4 4 -10z m-96 -26
c4 3 8 -1 8 -8 0 -8 -6 -12 -14 -9 -7 3 -12 15 -12 27 1 17 2 17 6 3 2 -9 8
-15 12 -13z m4264 -20 c8 20 27 21 27 1 0 -8 -5 -15 -12 -15 -6 0 -20 -8 -31
-17 -11 -10 -17 -13 -14 -6 4 6 3 24 -3 40 l-10 28 18 -24 c16 -20 20 -21 25
-7z m-4153 10 c0 -8 -19 -13 -24 -6 -3 5 1 9 9 9 8 0 15 -2 15 -3z m-45 -13
c3 -5 1 -12 -5 -16 -5 -3 -10 1 -10 9 0 18 6 21 15 7z m4150 -21 c3 -5 1 -10
-4 -10 -6 0 -11 5 -11 10 0 6 2 10 4 10 3 0 8 -4 11 -10z m98 -7 c-7 -3 -13
-9 -13 -14 0 -6 5 -7 10 -4 16 10 11 -31 -5 -45 -20 -16 -19 -27 3 -33 15 -4
15 -5 0 -6 -24 -1 -32 17 -16 36 11 15 11 16 -4 10 -10 -4 -18 -2 -18 4 0 6 9
9 19 6 14 -3 18 -1 14 9 -3 8 -8 12 -12 10 -4 -3 -7 4 -7 14 0 10 4 17 7 14 4
-2 11 1 14 7 4 5 10 7 14 3 3 -4 0 -9 -6 -11z m-4191 -15 c-7 -7 -12 -8 -12
-2 0 14 12 26 19 19 2 -3 -1 -11 -7 -17z m-24 -24 c-4 -3 -12 5 -18 18 -12 22
-12 22 6 6 10 -10 15 -20 12 -24z m-53 16 c3 -5 1 -10 -4 -10 -6 0 -11 5 -11
10 0 6 2 10 4 10 3 0 8 -4 11 -10z m4201 -19 c1 -6 0 -7 -3 -1 -9 18 -33 11
-26 -7 5 -15 3 -16 -7 -6 -10 9 -17 10 -27 2 -10 -9 -13 -8 -13 1 0 6 9 14 20
17 11 3 17 9 14 14 -3 5 5 5 17 0 13 -4 24 -13 25 -20z m-4230 -25 c-5 -25 19
-52 30 -34 4 7 2 14 -4 16 -22 7 -13 38 11 39 21 2 21 1 3 -12 -16 -12 -17
-15 -4 -20 8 -3 15 -12 15 -20 0 -8 -3 -13 -5 -10 -3 3 -10 1 -16 -5 -17 -13
-40 5 -41 32 -1 13 -5 29 -9 36 -5 8 -2 10 8 6 10 -4 14 -15 12 -28z m118 1
c3 3 1 -8 -4 -26 -5 -17 -6 -31 -4 -31 3 0 -1 -6 -8 -14 -15 -16 -32 -11 -22
6 4 6 3 8 -3 5 -6 -4 -9 -18 -8 -32 2 -17 -2 -25 -11 -25 -10 0 -12 5 -7 12 4
7 7 22 8 33 0 13 8 21 23 23 29 4 31 42 2 42 -11 0 -20 4 -20 10 0 6 9 6 24 0
13 -5 27 -6 30 -3z m4086 -35 c0 -14 -15 -8 -15 6 0 4 -4 14 -10 22 -8 13 -7
13 8 1 9 -7 17 -20 17 -29z m-38 -7 c-6 -34 -13 -32 -10 4 1 16 5 28 9 26 3
-3 4 -16 1 -30z m78 25 c8 -5 11 -10 5 -10 -5 0 -17 5 -25 10 -8 5 -10 10 -5
10 6 0 17 -5 25 -10z m-54 -55 c1 -8 -2 -15 -6 -15 -5 0 -17 -3 -27 -6 -17 -5
-17 -5 0 9 9 8 17 20 17 27 0 17 13 4 16 -15z m-4149 1 c-3 -8 -2 -16 3 -18 4
-2 2 -9 -6 -16 -11 -10 -14 -10 -14 2 0 18 10 46 17 46 3 0 3 -6 0 -14z m92
-24 c-4 -2 -5 -11 -2 -20 3 -12 2 -14 -4 -4 -5 7 -17 10 -26 6 -10 -3 -17 -1
-17 5 0 10 14 15 33 12 4 0 7 9 8 22 0 21 1 21 8 2 5 -11 5 -21 0 -23z m4123
21 c-6 -3 -9 -10 -5 -16 4 -7 -1 -6 -10 2 -21 17 -21 17 6 18 12 0 16 -1 9 -4z
m-4242 -34 c0 -5 -4 -9 -10 -9 -5 0 -10 7 -10 16 0 8 5 12 10 9 6 -3 10 -10
10 -16z m4270 11 c0 -5 -4 -10 -10 -10 -5 0 -10 5 -10 10 0 6 5 10 10 10 6 0
10 -4 10 -10z m-4245 -40 c-3 -5 0 -10 7 -11 10 0 10 -2 0 -6 -6 -2 -10 -9 -6
-14 8 -13 -10 -11 -23 2 -9 9 -8 15 0 25 14 15 31 19 22 4z m36 -21 c-5 -13
-10 -19 -10 -12 -1 15 10 45 15 40 3 -2 0 -15 -5 -28z m66 -7 l1 -24 -15 22
c-14 20 -16 20 -30 3 -13 -17 -14 -17 -4 2 13 29 46 27 48 -3z m-97 -34 c0 -5
5 -6 10 -3 6 4 5 -4 -1 -19 -18 -38 -36 -39 -37 -2 -1 23 3 33 13 33 8 0 15
-4 15 -9z m87 -8 c4 -12 3 -13 -5 -1 -5 7 -14 11 -20 7 -6 -3 -14 -1 -17 5 -5
7 1 9 16 7 12 -1 24 -10 26 -18z m-49 -41 c-12 -10 -25 -15 -28 -12 -3 3 1 8
8 10 6 3 10 8 8 12 -3 4 4 7 15 7 19 0 18 -1 -3 -17z m49 -26 c1 -22 -1 -24
-8 -10 -6 9 -7 22 -4 27 9 14 10 13 12 -17z m-87 7 c0 -5 -5 -10 -11 -10 -5 0
-7 5 -4 10 3 6 8 10 11 10 2 0 4 -4 4 -10z m40 -40 c-20 -13 -33 -13 -25 0 3
6 14 10 23 10 15 0 15 -2 2 -10z m90 -11 c0 -6 -4 -7 -10 -4 -5 3 -10 11 -10
16 0 6 5 7 10 4 6 -3 10 -11 10 -16z m-33 -9 c4 -12 3 -12 -5 -1 -8 11 -14 11
-33 0 -22 -11 -23 -11 -10 5 16 20 43 18 48 -4z m-91 -47 c-11 -11 -17 4 -9
23 7 18 8 18 11 1 2 -10 1 -21 -2 -24z m28 -10 c-4 -21 -11 -30 -20 -26 -11 4
-11 8 2 20 9 9 13 25 10 36 -3 13 -1 16 5 10 5 -5 6 -23 3 -40z m84 14 c-7
-15 -12 -16 -24 -6 -20 17 -17 24 10 24 20 0 22 -3 14 -18z m-44 -3 c5 -14 4
-15 -9 -4 -17 14 -19 20 -6 20 5 0 12 -7 15 -16z m36 -42 c0 -5 -7 -9 -15 -9
-8 0 -15 4 -15 9 0 4 7 8 15 8 8 0 15 -4 15 -8z m-65 -22 c-3 -5 -1 -10 4 -10
6 0 11 6 11 13 0 8 4 7 10 -3 7 -11 4 -17 -13 -22 -37 -11 -47 -9 -46 10 0 10
3 12 6 5 5 -14 24 -18 22 -5 -2 12 1 22 7 22 3 0 2 -4 -1 -10z m20 -49 c-3 -6
-11 -11 -16 -11 -5 0 -4 6 3 14 14 16 24 13 13 -3z m32 -20 c-6 -17 -14 -28
-19 -25 -12 8 11 52 29 54 1 0 -4 -13 -10 -29z m63 11 c0 -12 -3 -12 -17 -1
-10 7 -20 14 -22 16 -2 1 6 1 18 0 11 -1 21 -8 21 -15z m-115 -30 c-3 -3 -11
0 -18 7 -9 10 -8 11 6 5 10 -3 15 -9 12 -12z m105 4 c0 -2 -9 -6 -20 -9 -11
-3 -18 -1 -14 4 5 9 34 13 34 5z m30 -24 c0 -5 -7 -9 -15 -9 -8 0 -12 4 -9 9
3 4 9 8 15 8 5 0 9 -4 9 -8z m-80 -6 c0 -3 -4 -8 -10 -11 -5 -3 -10 -1 -10 4
0 6 5 11 10 11 6 0 10 -2 10 -4z m-40 -26 c0 -19 -18 -19 -23 -1 -3 14 -1 18
9 14 8 -3 14 -9 14 -13z m96 -13 c8 3 14 1 14 -4 0 -5 -9 -9 -20 -10 -15 -1
-20 4 -19 20 1 16 3 17 6 5 2 -10 10 -15 19 -11z m-86 -17 c0 -5 -5 -10 -11
-10 -5 0 -7 5 -4 10 3 6 8 10 11 10 2 0 4 -4 4 -10z m57 -30 c20 -15 22 -20 9
-20 -9 0 -19 7 -22 15 -4 8 -10 15 -15 15 -4 0 -6 -6 -4 -13 3 -6 -4 -18 -15
-25 -25 -15 -26 0 -3 28 21 24 19 24 50 0z m23 -46 c0 -8 -5 -12 -10 -9 -6 4
-8 11 -5 16 9 14 15 11 15 -7z m63 -4 c3 -11 0 -23 -6 -27 -7 -3 -9 -3 -5 2 4
4 3 16 -3 26 -5 11 -6 19 -1 19 6 0 12 -9 15 -20z m-83 -30 c0 -6 -9 -2 -20 7
-11 10 -20 19 -20 21 0 1 9 -2 20 -8 11 -6 20 -15 20 -20z m60 10 c0 -5 -7 -7
-15 -4 -8 4 -15 8 -15 10 0 2 7 4 15 4 8 0 15 -4 15 -10z m-80 -27 c22 -20 26
-33 8 -33 -6 0 -8 3 -5 7 4 3 -5 15 -20 25 -16 10 -22 18 -16 18 7 0 22 -8 33
-17z m54 -55 c-10 -10 -20 -16 -22 -13 -3 3 3 12 14 21 13 11 15 17 7 20 -7 3
-13 15 -13 27 0 19 2 18 15 -7 14 -26 14 -31 -1 -48z m60 46 c3 -8 2 -12 -4
-9 -6 3 -10 10 -10 16 0 14 7 11 14 -7z m22 -65 c3 -13 7 -35 10 -49 l5 -25
-16 23 c-9 12 -13 27 -10 32 3 6 0 10 -7 10 -10 0 -10 2 1 9 9 6 10 11 2 15
-6 4 -11 12 -11 19 0 19 20 -7 26 -34z m-132 6 c3 -8 1 -15 -4 -15 -6 0 -10 7
-10 15 0 8 2 15 4 15 2 0 6 -7 10 -15z m82 -23 c-8 -2 -17 -9 -19 -15 -2 -7
-2 -1 0 11 3 17 0 21 -8 16 -8 -4 -9 -3 -5 4 5 9 12 8 27 -1 15 -9 16 -13 5
-15z m-41 -32 c3 -5 1 -10 -4 -10 -6 0 -11 5 -11 10 0 6 2 10 4 10 3 0 8 -4
11 -10z m75 -10 c0 -5 -2 -10 -4 -10 -3 0 -8 5 -11 10 -3 6 -1 10 4 10 6 0 11
-4 11 -10z m-90 -32 c0 -19 -2 -20 -10 -8 -13 19 -13 30 0 30 6 0 10 -10 10
-22z m35 -16 c-8 -8 -25 10 -19 20 4 6 9 5 15 -3 4 -7 6 -15 4 -17z m51 6 c3
-4 -1 -5 -10 -4 -8 1 -18 5 -22 8 -3 4 1 5 10 4 8 -1 18 -5 22 -8z m54 4 c0
-5 -7 -9 -15 -9 -8 0 -12 4 -9 9 3 4 9 8 15 8 5 0 9 -4 9 -8z m-99 -45 c-10
-9 -11 -8 -5 6 3 10 9 15 12 12 3 -3 0 -11 -7 -18z m-23 -18 c-3 -8 -7 -3 -11
10 -4 17 -3 21 5 13 5 -5 8 -16 6 -23z m43 -23 c-6 -7 -9 -16 -6 -20 3 -3 -1
-1 -8 5 -9 9 -9 12 1 16 6 3 9 10 6 15 -4 7 -2 8 5 4 8 -6 9 -12 2 -20z m64
-6 c-3 -5 -10 -10 -16 -10 -5 0 -9 5 -9 10 0 6 7 10 16 10 8 0 12 -4 9 -10z
m-48 -22 c-3 -8 -6 -5 -6 6 -1 11 2 17 5 13 3 -3 4 -12 1 -19z m103 -49 c0 -6
-4 -7 -10 -4 -5 3 -10 11 -10 17 0 6 -6 19 -12 28 -7 9 -3 5 10 -8 12 -13 22
-28 22 -33z m-125 12 c1 -11 -2 -18 -7 -15 -5 4 -7 12 -4 19 2 7 0 18 -5 24
-6 8 -5 8 3 1 6 -5 12 -19 13 -29z m70 19 c3 -5 1 -10 -4 -10 -6 0 -11 5 -11
10 0 6 2 10 4 10 3 0 8 -4 11 -10z m-5 -50 c6 -11 16 -18 23 -16 6 1 9 1 4 -1
-4 -3 -5 -9 -1 -14 3 -5 0 -9 -6 -9 -6 0 -9 -4 -5 -9 3 -5 1 -12 -4 -16 -6 -3
-8 6 -5 21 4 24 2 26 -20 22 -14 -3 -31 -1 -38 4 -10 8 -10 9 2 5 8 -2 21 2
28 9 12 13 8 18 -10 16 -3 -1 -9 5 -12 14 -8 22 31 -1 44 -26z m25 12 c-3 -3
-11 0 -18 7 -9 10 -8 11 6 5 10 -3 15 -9 12 -12z m70 -52 c-3 -5 -11 -10 -16
-10 -6 0 -7 5 -4 10 3 6 11 10 16 10 6 0 7 -4 4 -10z m-125 -10 c0 -5 -4 -10
-10 -10 -5 0 -10 5 -10 10 0 6 5 10 10 10 6 0 10 -4 10 -10z m90 -5 c11 -13
10 -14 -4 -9 -12 5 -19 0 -23 -15 -3 -11 -10 -21 -15 -21 -5 0 -1 14 9 30 20
35 17 34 33 15z m-76 -19 c-6 -15 -24 -23 -24 -11 0 8 24 34 28 30 1 -1 0 -10
-4 -19z m128 -4 c3 -10 0 -19 -6 -19 -7 0 -13 9 -13 19 -1 10 2 18 6 18 5 0
11 -8 13 -18z m-76 -41 c-4 -5 0 -11 6 -14 7 -2 -3 -3 -22 -1 -48 4 -49 5 -15
14 17 4 31 8 33 9 2 0 1 -3 -2 -8z m101 -42 c-5 -4 -5 -9 2 -13 19 -12 32 -43
18 -43 -7 0 -21 -4 -32 -8 -17 -6 -16 -4 4 13 19 15 21 21 10 28 -8 5 -18 9
-24 10 -5 0 -16 2 -23 2 -7 1 -10 7 -6 13 5 8 9 8 14 -1 14 -23 31 -1 19 23
-12 22 -12 22 8 2 11 -11 16 -23 10 -26z m-67 6 c0 -8 -4 -15 -10 -15 -5 0 -7
7 -4 15 4 8 8 15 10 15 2 0 4 -7 4 -15z m-30 1 c0 -3 -4 -8 -10 -11 -5 -3 -10
-1 -10 4 0 6 5 11 10 11 6 0 10 -2 10 -4z m43 -41 c15 0 27 -3 27 -7 0 -4 -15
-6 -32 -4 -18 2 -41 4 -50 5 -10 0 -18 5 -18 11 0 6 9 6 23 2 12 -5 34 -8 50
-7z m-43 -30 c0 -8 -4 -15 -10 -15 -5 0 -7 7 -4 15 4 8 8 15 10 15 2 0 4 -7 4
-15z m150 -14 c0 -5 2 -16 5 -24 4 -8 0 -14 -9 -14 -8 0 -13 5 -10 11 3 6 -2
2 -10 -8 -9 -11 -16 -17 -16 -13 0 8 -74 -23 -81 -35 -3 -5 -9 -3 -12 6 -4 9
-3 15 1 14 16 -4 82 27 82 39 0 7 3 12 8 12 19 -3 33 2 27 11 -3 6 -1 10 4 10
6 0 11 -4 11 -9z m-63 -14 c0 -8 -6 -14 -14 -14 -17 0 -17 14 0 20 6 3 12 6
13 6 0 1 1 -5 1 -12z m-45 -20 c-4 -14 -7 -16 -13 -5 -12 19 -11 25 5 25 8 0
11 -8 8 -20z m138 -31 c0 -11 -19 -15 -25 -6 -3 5 1 10 9 10 9 0 16 -2 16 -4z
m-65 -30 c16 16 16 16 13 -1 -2 -10 2 -20 9 -22 7 -3 10 4 6 19 -4 22 -4 22 9
-2 19 -34 1 -54 -26 -29 -10 10 -22 16 -26 14 -5 -3 -19 4 -31 16 l-24 20 26
-16 c25 -15 28 -15 44 1z m85 -34 c0 -14 -15 -8 -15 6 0 4 -4 14 -10 22 -8 13
-7 13 8 1 9 -7 17 -20 17 -29z m-102 -11 c12 -10 19 -20 16 -24 -3 -3 -1 -8 5
-12 6 -3 11 -1 11 4 0 6 5 11 11 11 8 0 8 -4 -1 -14 -12 -15 -40 -11 -40 6 0
5 -7 17 -17 26 -15 16 -16 15 -11 -11 6 -33 3 -34 -13 -6 -9 17 -8 23 2 30 8
5 14 9 15 9 1 0 11 -8 22 -19z m82 -40 c0 -5 -10 -11 -22 -14 -22 -6 -22 -6
-4 8 23 17 26 18 26 6z m59 -20 c8 -14 7 -20 -4 -25 -8 -3 -15 -1 -15 4 0 5
-7 16 -16 24 -14 15 -14 16 5 16 11 0 25 -9 30 -19z m-39 -5 c0 -3 -4 -8 -10
-11 -5 -3 -10 -1 -10 4 0 6 5 11 10 11 6 0 10 -2 10 -4z m-80 -28 c0 -4 -4 -8
-9 -8 -6 0 -12 4 -15 8 -3 5 1 9 9 9 8 0 15 -4 15 -9z m46 -3 c-3 -8 -1 -15 4
-15 6 0 10 -7 10 -15 0 -8 -4 -15 -10 -15 -5 0 -9 6 -7 13 1 6 -6 11 -16 10
-18 -1 -18 0 0 17 22 23 27 24 19 5z m118 -34 c9 -16 12 -31 9 -35 -6 -6 -33
39 -33 55 0 17 9 9 24 -20z m-24 -19 c0 -5 -12 -14 -26 -21 -20 -9 -25 -9 -22
1 3 7 10 13 16 13 5 0 14 3 18 8 10 9 14 9 14 -1z m-80 -16 c0 -2 -8 -10 -17
-17 -16 -13 -17 -12 -4 4 13 16 21 21 21 13z m88 -54 c15 12 16 11 3 -4 -7
-10 -20 -18 -27 -18 -10 0 -13 -7 -8 -24 3 -13 2 -26 -3 -29 -5 -3 -9 2 -10
11 -1 9 -4 27 -8 40 -6 18 -4 21 9 16 10 -4 16 -1 17 7 0 11 2 11 6 1 4 -10 8
-10 21 0z m76 -10 c2 -4 -10 -21 -28 -37 l-33 -30 -11 23 c-8 18 -8 24 4 29 8
3 18 3 21 -1 4 -3 -2 -6 -12 -6 -14 0 -16 -3 -8 -11 9 -9 18 -6 38 9 l26 21
-23 4 c-23 4 -23 4 -1 6 12 0 24 -3 27 -7z m-149 -12 c3 -5 1 -10 -4 -10 -6 0
-11 5 -11 10 0 6 2 10 4 10 3 0 8 -4 11 -10z m214 -88 c11 -27 11 -27 -5 -4
-9 12 -25 22 -36 22 -10 0 -17 4 -14 9 11 16 43 0 55 -27z m-134 14 c8 -7 11
-17 8 -20 -4 -4 -8 -13 -9 -21 -2 -11 2 -12 17 -2 10 6 19 15 19 19 0 5 6 8
13 8 6 -1 1 -10 -12 -20 -13 -11 -19 -20 -15 -20 5 0 3 -4 -5 -9 -20 -13 -44
18 -29 36 13 16 0 36 -19 29 -8 -3 -11 -1 -8 4 9 14 24 12 40 -4z m85 -31 c-7
-8 -17 -15 -23 -15 -6 0 -2 7 9 15 25 19 30 19 14 0z m29 -45 c0 -10 -3 -9 -8
4 -5 14 -10 16 -15 8 -4 -7 -11 -12 -16 -12 -6 0 -2 9 7 20 18 21 33 11 32
-20z m22 -3 c-10 -9 -11 -8 -5 6 3 10 9 15 12 12 3 -3 0 -11 -7 -18z m-87 5
c2 -4 -5 -9 -17 -9 -17 -2 -19 0 -7 7 18 12 18 12 24 2z m111 -21 c-3 -6 -11
-11 -16 -11 -5 0 -4 6 3 14 14 16 24 13 13 -3z m-119 -16 c4 -8 11 -15 16 -15
6 0 8 7 5 14 -4 10 -1 13 9 9 14 -5 14 -7 0 -22 -15 -14 -18 -13 -38 7 -13 12
-17 22 -10 22 7 0 15 -7 18 -15z m157 -27 c6 -21 -1 -22 -25 -4 -23 17 -23 22
1 22 11 0 22 -8 24 -18z m-68 2 c3 -5 2 -10 -4 -10 -5 0 -13 5 -16 10 -3 6 -2
10 4 10 5 0 13 -4 16 -10z m37 -17 c-6 -2 -10 -8 -7 -13 3 -4 -1 -10 -9 -13
-10 -4 -12 0 -9 14 3 10 13 19 22 18 10 0 11 -2 3 -6z m73 -23 c8 0 19 -9 25
-20 11 -20 10 -20 -12 -8 -26 15 -38 28 -37 43 0 6 3 4 6 -2 2 -7 11 -13 18
-13z m-115 -4 c0 -2 -8 -10 -17 -17 -16 -13 -17 -12 -4 4 13 16 21 21 21 13z
m80 -21 c0 -8 -4 -15 -9 -15 -13 0 -22 16 -14 24 11 11 23 6 23 -9z m89 -46
c-16 -10 -23 -4 -14 10 3 6 11 8 17 5 6 -4 5 -9 -3 -15z m-46 -14 c-3 -9 -8
-14 -10 -11 -3 3 -2 9 2 15 9 16 15 13 8 -4z m84 -26 c7 -13 13 -20 13 -15 0
5 2 7 5 4 12 -11 -8 -38 -28 -38 -16 0 -18 3 -9 12 17 17 15 39 -3 32 -8 -4
-15 -1 -15 5 0 6 5 11 12 11 6 0 9 2 6 5 -9 10 -38 -7 -31 -18 3 -6 1 -7 -5
-3 -7 4 -12 2 -12 -5 0 -7 -2 -10 -5 -7 -10 9 6 37 23 41 26 7 36 2 49 -24z
m-45 -52 c-2 -14 4 -16 38 -11 33 5 40 3 40 -11 0 -15 -3 -15 -15 -5 -9 7 -18
10 -22 6 -3 -3 -1 -6 6 -6 14 0 41 -59 41 -90 0 -11 -5 -20 -11 -20 -7 0 -9
10 -5 24 4 18 1 28 -10 34 -10 6 -15 16 -11 26 4 9 1 17 -6 18 -7 0 -16 2 -22
3 -5 2 -16 3 -22 4 -7 0 -13 10 -13 21 0 13 -5 18 -15 14 -8 -4 -13 -10 -10
-14 3 -5 0 -12 -7 -16 -8 -5 -6 -10 8 -15 14 -6 15 -8 3 -8 -9 -1 -23 7 -33
18 -16 17 -15 19 16 34 38 19 54 17 50 -6z m108 -16 c0 -18 -12 -41 -22 -41
-6 0 -5 6 2 15 6 8 9 19 5 25 -3 5 -1 10 4 10 6 0 11 -4 11 -9z m16 -38 c-10
-10 -19 5 -10 18 6 11 8 11 12 0 2 -7 1 -15 -2 -18z m-105 -1 c-7 -2 -18 1
-23 6 -8 8 -4 9 13 5 13 -4 18 -8 10 -11z m158 -46 c0 -6 -3 -6 -6 2 -2 6 -9
10 -13 7 -5 -3 -6 -13 -3 -22 4 -9 2 -14 -3 -11 -5 4 -18 0 -29 -8 -12 -9 -14
-14 -5 -14 7 0 11 -3 7 -6 -3 -3 -11 -3 -17 1 -8 5 -1 18 20 38 18 17 27 33
21 35 -6 2 -11 8 -11 14 0 6 9 3 20 -7 11 -10 20 -23 19 -29z m-52 15 c0 -11
-5 -18 -9 -15 -4 3 -5 11 -1 19 7 21 12 19 10 -4z m74 -44 c-7 -7 -14 -8 -21
-1 -6 6 -2 10 12 11 16 2 18 -1 9 -10z m-17 -20 c4 4 4 0 1 -10 -6 -14 -9 -14
-21 -2 -18 17 -18 31 -1 16 8 -6 17 -8 21 -4z m-30 -51 c-7 -17 -52 -27 -61
-13 -3 6 -1 7 5 3 7 -4 12 -2 12 4 0 6 4 9 9 5 5 -3 12 -1 16 5 9 15 25 12 19
-4z m49 -12 c-18 -9 -33 -21 -33 -26 0 -5 -4 -7 -10 -3 -14 8 -1 35 15 29 7
-3 16 -1 20 5 3 6 14 11 23 11 10 0 3 -7 -15 -16z m80 -14 c-3 -11 -9 -20 -14
-20 -11 0 -11 3 -3 24 9 23 23 20 17 -4z m59 -30 c5 0 8 -7 4 -15 -3 -8 -1
-15 5 -15 6 0 8 -4 5 -9 -4 -5 -1 -11 6 -13 8 -3 6 -7 -5 -11 -12 -5 -17 -1
-17 13 0 11 -7 20 -16 20 -8 0 -12 5 -9 10 3 6 -4 11 -17 11 -16 1 -18 3 -6 6
11 3 15 10 11 21 -6 15 -5 15 11 0 9 -10 22 -18 28 -18z m-142 -10 c0 -5 -4
-10 -10 -10 -5 0 -10 5 -10 10 0 6 5 10 10 10 6 0 10 -4 10 -10z m72 -14 c7 4
8 2 4 -5 -4 -6 -12 -8 -18 -5 -6 4 -8 1 -6 -7 3 -8 -2 -22 -10 -32 -15 -16
-14 -17 1 -11 10 3 17 1 17 -5 0 -19 -23 -12 -52 16 -32 31 -35 43 -10 43 13
0 14 -2 4 -9 -11 -6 -11 -10 0 -19 17 -14 33 -4 43 28 5 14 10 19 12 12 3 -6
10 -9 15 -6z m46 -42 c14 -15 14 -16 -3 -13 -10 2 -20 10 -23 17 -5 17 6 15
26 -4z m72 -10 c0 -8 -5 -12 -10 -9 -6 4 -8 11 -5 16 9 14 15 11 15 -7z m-28
-46 c-10 -22 -10 -21 -9 9 1 19 6 28 11 23 6 -6 5 -18 -2 -32z m68 5 c0 -5
-11 -8 -25 -8 -14 0 -25 3 -25 8 0 4 11 7 25 7 14 0 25 -3 25 -7z m39 -7 c9
-11 9 -16 -1 -22 -7 -4 -10 -4 -6 1 4 4 3 14 -3 22 -6 7 -9 13 -6 13 2 0 10
-6 16 -14z m-143 -29 c4 -4 -2 -7 -14 -7 -11 0 -23 4 -26 8 -6 10 30 9 40 -1z
m74 -7 c-8 -5 -18 -6 -24 -3 -5 4 -1 10 10 13 24 9 34 2 14 -10z m-53 -32 c-3
-8 -6 -5 -6 6 -1 11 2 17 5 13 3 -3 4 -12 1 -19z m28 2 c-3 -5 -1 -11 5 -15 6
-4 8 -10 5 -15 -3 -5 4 -12 16 -15 14 -5 25 -2 30 6 6 10 9 5 9 -16 0 -21 -3
-26 -9 -16 -5 7 -13 11 -19 8 -13 -9 -39 22 -48 57 -5 21 -4 27 5 22 6 -4 9
-11 6 -16z m159 -6 c4 -10 1 -14 -6 -12 -15 5 -23 28 -10 28 5 0 13 -7 16 -16z
m-42 -30 c-24 -17 -39 -14 -27 5 3 6 16 11 28 11 l21 0 -22 -16z m30 -26 c-8
-8 -9 -4 -5 13 4 13 8 18 11 10 2 -7 -1 -18 -6 -23z m93 2 c3 -5 2 -10 -4 -10
-5 0 -13 5 -16 10 -3 6 -2 10 4 10 5 0 13 -4 16 -10z m-55 -4 c0 -3 -4 -8 -10
-11 -5 -3 -10 -1 -10 4 0 6 5 11 10 11 6 0 10 -2 10 -4z m-32 -33 c16 -16 16
-16 0 -10 -12 4 -19 0 -24 -15 -5 -16 -8 -18 -15 -7 -5 8 -9 19 -9 24 0 6 5 3
10 -5 8 -12 10 -11 10 8 0 26 6 28 28 5z m136 -24 c-2 -4 0 -10 6 -14 5 -3 10
-14 10 -23 -1 -12 -5 -8 -16 10 -10 19 -19 25 -32 21 -15 -6 -15 -4 2 16 14
16 22 18 27 9 4 -7 6 -15 3 -19z m-103 -43 c-6 -14 -13 -26 -16 -26 -7 0 -1
32 9 48 13 21 17 7 7 -22z m155 19 c4 -8 10 -13 14 -10 5 3 11 1 15 -5 3 -5 0
-10 -7 -10 -15 0 -48 20 -33 20 6 0 3 5 -5 10 -10 7 -11 10 -2 10 7 0 15 -7
18 -15z m-82 -7 c-3 -4 -9 -8 -15 -8 -5 0 -9 4 -9 8 0 5 7 9 15 9 8 0 12 -4 9
-9z m26 -16 c0 -4 -9 -15 -20 -25 -22 -19 -25 -15 -10 14 11 19 30 26 30 11z
m1055 -12 c-3 -5 -11 -10 -16 -10 -6 0 -7 5 -4 10 3 6 11 10 16 10 6 0 7 -4 4
-10z m-996 -9 c9 -6 10 -11 2 -15 -6 -4 -11 -2 -11 4 0 6 -4 8 -10 5 -5 -3
-10 -1 -10 4 0 13 10 14 29 2z m55 0 c3 -5 -3 -11 -13 -14 -14 -3 -18 -1 -14
9 6 16 19 18 27 5z m-189 -11 c3 -5 2 -10 -4 -10 -5 0 -13 5 -16 10 -3 6 -2
10 4 10 5 0 13 -4 16 -10z m233 -18 c2 -7 -3 -12 -10 -12 -8 0 -15 7 -15 15 0
18 19 15 25 -3z m885 4 c-4 -5 1 -7 10 -3 10 3 17 2 17 -3 0 -6 -7 -10 -15
-10 -8 0 -15 -8 -15 -17 -1 -17 -1 -17 -14 0 -16 21 -26 22 -26 1 0 -8 -4 -12
-10 -9 -5 3 -10 1 -10 -4 0 -14 13 -14 28 1 9 9 12 8 12 -5 0 -11 -8 -17 -25
-17 -17 0 -25 6 -25 18 0 15 -2 15 -11 2 -8 -12 -9 -11 -6 5 2 11 9 19 16 17
15 -3 43 23 34 32 -4 3 5 5 20 4 14 -1 23 -7 20 -12z m-1046 -19 c3 -4 -5 -7
-20 -7 -14 0 -28 4 -31 8 -5 9 41 8 51 -1z m68 3 c-3 -6 -17 -10 -31 -10 -33
0 -24 15 11 18 15 1 24 -2 20 -8z m129 -21 c-3 -5 -10 -7 -15 -3 -5 3 -7 10
-3 15 3 5 10 7 15 3 5 -3 7 -10 3 -15z m-91 -4 c-3 -9 -8 -14 -10 -11 -3 3 -2
9 2 15 9 16 15 13 8 -4z m42 -4 c-3 -6 -14 -11 -23 -11 -15 1 -15 2 2 15 21
16 32 13 21 -4z m-101 -18 c10 4 13 1 9 -8 -4 -13 -9 -12 -34 2 -16 10 -29 22
-29 27 0 5 9 1 20 -9 10 -9 26 -15 34 -12z m190 -14 c-19 -22 -13 -24 19 -7
19 10 20 9 10 -3 -7 -8 -10 -26 -7 -40 4 -24 4 -24 -5 -1 -6 12 -18 22 -26 22
-9 0 -13 -4 -10 -10 3 -6 -1 -7 -9 -4 -9 3 -13 11 -10 16 4 6 1 14 -6 18 -9 5
-9 9 -1 14 6 4 11 2 11 -4 0 -6 5 -8 10 -5 6 4 8 11 5 16 -3 5 2 6 11 2 13 -5
15 -3 9 7 -6 9 -4 11 4 6 9 -6 8 -13 -5 -27z m821 3 c-3 -3 -11 0 -18 7 -9 10
-8 11 6 5 10 -3 15 -9 12 -12z m-970 -2 c-3 -5 -2 -10 4 -10 6 0 8 -7 5 -15
-4 -8 -1 -15 7 -15 7 0 10 -3 6 -6 -3 -3 -16 1 -29 10 -12 9 -17 16 -10 16 6
0 11 3 11 8 -2 12 1 22 7 22 3 0 2 -4 -1 -10z m59 -22 c-3 -4 -13 -8 -22 -7
-11 0 -12 3 -4 6 6 2 12 12 12 21 0 14 2 15 9 2 6 -8 7 -18 5 -22z m759 1 c-4
-15 -8 -17 -14 -8 -6 11 4 28 18 29 0 0 -1 -9 -4 -21z m84 1 c4 -13 3 -13 -6
0 -5 8 -13 11 -17 7 -9 -9 5 -24 26 -29 8 -2 14 3 15 11 0 8 7 16 15 18 12 4
12 3 1 -5 -9 -6 -10 -12 -3 -16 6 -4 8 -14 5 -24 -6 -15 -5 -16 13 -2 18 14
18 14 5 -3 -13 -16 -16 -17 -26 -4 -9 13 -13 12 -33 -3 -13 -11 -18 -21 -12
-25 15 -9 4 -23 -33 -41 l-32 -17 19 22 c11 11 25 21 33 21 8 0 11 5 8 10 -9
15 -21 12 -41 -7 -10 -10 -29 -19 -43 -19 -14 -1 -20 0 -13 3 6 3 9 10 6 15
-4 7 -2 8 4 4 18 -11 37 4 21 16 -9 5 -4 7 16 3 28 -6 29 -5 11 9 -18 15 -17
15 14 11 47 -6 55 3 25 27 -14 10 -25 24 -25 29 0 16 43 6 47 -11z m-807 -33
c0 -10 -5 -15 -10 -12 -6 4 -8 11 -5 16 4 5 2 9 -4 9 -6 0 -8 7 -4 16 5 13 7
13 14 2 5 -7 9 -21 9 -31z m699 -10 c-1 -17 -2 -18 -6 -4 -5 20 -19 22 -27 5
-3 -7 -3 -2 0 11 5 17 3 21 -6 16 -9 -5 -11 -4 -6 3 12 19 46 -5 45 -31z m61
28 c7 -9 8 -15 2 -15 -5 0 -12 7 -16 15 -3 8 -4 15 -2 15 2 0 9 -7 16 -15z
m139 -1 c-6 -7 -17 -10 -25 -7 -19 7 -8 22 16 20 14 -1 16 -5 9 -13z m-844
-34 c6 0 2 -5 -8 -11 -14 -8 -15 -14 -6 -32 10 -20 10 -20 -4 -7 -8 8 -18 25
-21 37 -5 17 -3 21 11 18 10 -2 23 -4 28 -5z m81 -16 c13 -11 14 -14 3 -11 -9
3 -23 -5 -34 -19 -9 -13 -22 -21 -27 -18 -6 4 -5 10 3 15 8 4 15 13 15 19 1 5
2 15 3 20 2 14 14 12 37 -6z m492 2 c-7 -8 -15 -12 -17 -11 -5 6 10 25 20 25
5 0 4 -6 -3 -14z m-404 -11 c12 -9 15 -15 7 -15 -8 0 -11 -6 -7 -16 4 -12 2
-15 -9 -11 -8 4 -17 2 -20 -3 -4 -6 -11 -10 -17 -10 -5 0 0 9 13 20 24 20 24
20 5 35 -14 11 -16 15 -5 15 8 0 23 -7 33 -15z m391 -18 c6 -5 3 -7 -7 -3 -10
3 -18 1 -18 -5 0 -6 -4 -7 -10 -4 -6 4 -5 11 3 20 6 7 14 10 17 7 3 -4 10 -11
15 -15z m28 -8 c-9 -9 -12 -7 -10 9 1 14 5 18 11 12 7 -7 6 -14 -1 -21z m-453
11 c0 -5 -2 -10 -4 -10 -3 0 -8 5 -11 10 -3 6 -1 10 4 10 6 0 11 -4 11 -10z
m160 -60 l25 -19 -25 6 c-14 3 -29 11 -33 17 -6 8 -10 7 -14 -1 -8 -21 -22
-15 -16 7 4 16 2 19 -12 13 -12 -4 -16 -3 -11 5 3 6 2 13 -4 17 -5 3 -10 -2
-10 -11 0 -10 -3 -15 -6 -11 -4 3 -4 13 0 22 5 15 10 14 43 -5 21 -11 49 -30
63 -40z m203 53 c-7 -2 -13 -11 -13 -19 0 -8 -6 -11 -16 -7 -13 5 -15 1 -9
-18 5 -18 4 -21 -4 -9 -15 22 -13 40 4 40 8 0 15 5 15 10 0 6 8 10 18 9 10 0
12 -3 5 -6z m-411 -27 c7 4 8 2 4 -4 -4 -7 -1 -12 8 -12 9 0 16 -4 16 -10 0
-15 -9 -12 -36 9 -13 10 -20 21 -16 25 3 4 8 2 10 -3 2 -6 9 -8 14 -5z m436
-11 c-3 -3 -9 2 -12 12 -6 14 -5 15 5 6 7 -7 10 -15 7 -18z m-353 -5 c4 -6 11
-8 16 -5 5 4 9 -2 9 -11 0 -10 -3 -14 -7 -11 -3 4 -12 2 -18 -3 -9 -8 -14 -4
-17 15 -5 25 5 34 17 15z m422 -6 c-3 -3 -12 -4 -19 -1 -8 3 -5 6 6 6 11 1 17
-2 13 -5z m-497 -35 c0 -6 -7 -6 -20 1 -11 6 -20 15 -20 21 0 6 7 6 20 -1 11
-6 20 -15 20 -21z m430 27 c0 -2 -8 -10 -17 -17 -16 -13 -17 -12 -4 4 13 16
21 21 21 13z m95 -5 c3 -5 1 -12 -5 -16 -5 -3 -10 1 -10 9 0 18 6 21 15 7z
m-51 -12 c14 -7 23 -16 20 -21 -3 -4 -12 -2 -20 6 -8 9 -22 12 -31 9 -11 -4
-14 -3 -9 5 9 15 9 15 40 1z m-293 -8 c7 11 9 10 9 -4 0 -11 -5 -17 -12 -14
-7 2 -21 -2 -30 -11 -16 -14 -18 -13 -18 2 0 9 4 15 9 12 5 -3 12 2 16 12 6
13 9 14 12 3 5 -11 7 -11 14 0z m-141 -9 c0 -5 -7 -9 -15 -9 -8 0 -12 4 -9 9
3 4 9 8 15 8 5 0 9 -4 9 -8z m76 -19 c-2 -9 -8 -19 -14 -21 -7 -2 -9 -8 -6
-14 4 -7 9 -6 13 1 5 8 13 6 27 -4 19 -15 19 -15 -1 -8 -18 6 -18 5 -6 -10 9
-12 -1 -9 -33 9 -44 25 -62 42 -31 30 15 -5 22 9 8 17 -5 2 -3 3 3 1 6 -1 17
2 25 7 18 11 18 12 15 -8z m139 -23 c-3 -6 -12 -10 -18 -9 -9 0 -8 2 1 6 6 2
9 9 6 15 -3 5 -15 2 -27 -9 -17 -14 -17 -12 2 10 21 23 26 25 34 12 4 -8 5
-20 2 -25z m50 30 c3 -6 -1 -7 -9 -4 -18 7 -21 14 -7 14 6 0 13 -4 16 -10z
m155 -10 c0 -5 -2 -10 -4 -10 -3 0 -8 5 -11 10 -3 6 -1 10 4 10 6 0 11 -4 11
-10z m-288 -32 c-7 -7 -12 -8 -12 -2 0 6 3 14 7 17 3 4 9 5 12 2 2 -3 -1 -11
-7 -17z m179 8 c8 4 9 3 5 -4 -5 -8 1 -12 18 -12 13 0 27 6 29 13 4 9 6 9 6 0
1 -14 -33 -34 -51 -31 -7 2 -12 -3 -10 -10 1 -8 -2 -11 -7 -8 -5 4 -11 3 -14
-1 -2 -5 -2 -2 -1 5 2 6 -2 12 -8 12 -7 0 -6 5 2 15 9 10 9 15 1 15 -6 0 -11
5 -11 11 0 8 4 8 15 -1 8 -6 20 -8 26 -4z m-116 -26 c-3 -5 -12 -10 -18 -10
-7 0 -6 4 3 10 19 12 23 12 15 0z m-21 -49 c4 -5 -3 -7 -14 -4 -23 6 -26 13
-6 13 8 0 17 -4 20 -9z m69 -8 c-7 -2 -19 -2 -25 0 -7 3 -2 5 12 5 14 0 19 -2
13 -5z"/>
<path d="M5680 7265 c7 -8 17 -15 22 -15 6 0 5 7 -2 15 -7 8 -17 15 -22 15 -6
0 -5 -7 2 -15z"/>
<path d="M5760 7269 c0 -5 5 -7 10 -4 6 3 10 8 10 11 0 2 -4 4 -10 4 -5 0 -10
-5 -10 -11z"/>
<path d="M6114 7138 c-4 -7 -3 -8 5 -4 6 4 20 2 29 -6 15 -12 16 -11 3 5 -16
20 -27 22 -37 5z"/>
<path d="M6710 6150 c-9 -16 -8 -18 5 -14 8 4 15 12 15 20 0 20 -7 17 -20 -6z"/>
<path d="M2475 5680 c-3 -5 -1 -10 4 -10 6 0 11 5 11 10 0 6 -2 10 -4 10 -3 0
-8 -4 -11 -10z"/>
<path d="M3290 3759 c0 -5 5 -7 10 -4 6 3 10 8 10 11 0 2 -4 4 -10 4 -5 0 -10
-5 -10 -11z"/>
<path d="M4670 2759 c0 -5 5 -7 10 -4 6 3 10 8 10 11 0 2 -4 4 -10 4 -5 0 -10
-5 -10 -11z"/>
<path d="M4553 7123 c15 -2 37 -2 50 0 12 2 0 4 -28 4 -27 0 -38 -2 -22 -4z"/>
<path d="M4449 7083 c-13 -16 -12 -17 4 -4 9 7 17 15 17 17 0 8 -8 3 -21 -13z"/>
<path d="M4387 7013 c-2 -5 -17 -30 -32 -58 -16 -27 -24 -45 -18 -40 14 14 66
105 60 105 -3 0 -8 -3 -10 -7z"/>
<path d="M4795 6980 c9 -16 18 -30 21 -30 2 0 -2 14 -11 30 -9 17 -18 30 -21
30 -2 0 2 -13 11 -30z"/>
<path d="M4280 6820 c-6 -11 -8 -20 -6 -20 3 0 10 9 16 20 6 11 8 20 6 20 -3
0 -10 -9 -16 -20z"/>
<path d="M4235 6740 c-9 -16 -13 -30 -11 -30 3 0 12 14 21 30 9 17 13 30 11
30 -3 0 -12 -13 -21 -30z"/>
<path d="M4920 6750 c6 -11 13 -20 16 -20 2 0 0 9 -6 20 -6 11 -13 20 -16 20
-2 0 0 -9 6 -20z"/>
<path d="M4185 6650 c-9 -16 -13 -30 -11 -30 3 0 12 14 21 30 9 17 13 30 11
30 -3 0 -12 -13 -21 -30z"/>
<path d="M5000 6610 c6 -11 13 -20 16 -20 2 0 0 9 -6 20 -6 11 -13 20 -16 20
-2 0 0 -9 6 -20z"/>
<path d="M4130 6550 c-6 -11 -8 -20 -6 -20 3 0 10 9 16 20 6 11 8 20 6 20 -3
0 -10 -9 -16 -20z"/>
<path d="M4536 6509 c-56 -13 -105 -54 -128 -106 -18 -42 -19 -55 -9 -241 6
-108 18 -343 27 -522 16 -319 25 -390 44 -360 6 9 5 17 -2 21 -7 4 -12 50 -14
116 -1 59 0 98 2 86 3 -13 10 -23 15 -23 5 0 9 -5 9 -11 0 -5 -4 -7 -10 -4 -6
4 -10 -12 -10 -39 0 -40 3 -46 21 -46 15 0 19 5 15 16 -3 8 -2 12 4 9 5 -3 9
-17 8 -30 -2 -19 -6 -22 -19 -14 -27 14 -35 11 -14 -5 17 -12 18 -16 5 -32 -9
-12 -9 -15 -1 -8 14 13 51 7 51 -7 0 -5 5 -9 11 -9 6 0 9 6 6 14 -4 10 1 16
14 18 12 2 26 17 34 36 13 30 13 32 -5 32 -15 0 -20 -7 -20 -25 0 -26 -34 -53
-45 -35 -3 5 3 10 13 10 14 0 21 9 25 33 5 27 1 36 -24 58 -21 19 -28 31 -23
44 5 11 4 16 -3 12 -5 -4 -21 5 -34 19 -20 21 -21 27 -9 34 19 12 50 13 50 1
0 -5 -9 -7 -19 -4 -14 3 -19 0 -17 -11 3 -19 16 -34 16 -18 0 7 5 12 11 12 5
0 8 -4 4 -9 -3 -5 0 -13 6 -16 5 -4 8 -13 5 -21 -3 -9 0 -11 11 -7 12 5 14 3
8 -7 -6 -10 -4 -12 8 -7 17 6 39 -14 35 -33 -5 -20 17 -22 39 -2 18 15 19 20
8 35 -15 21 -29 23 -22 3 4 -10 1 -13 -7 -10 -9 4 -12 18 -8 47 4 39 3 41 -14
27 -11 -9 -15 -10 -10 -2 4 7 2 12 -5 12 -8 0 -8 4 1 15 10 12 10 15 -4 15 -9
0 -16 -5 -16 -11 0 -6 -7 -3 -16 6 -9 9 -23 14 -30 11 -7 -3 -16 -1 -19 5 -4
5 -1 8 6 7 15 -3 19 34 4 44 -5 4 -14 3 -20 -2 -8 -7 -12 -4 -12 6 0 12 7 14
26 9 14 -3 32 -6 39 -7 6 -1 12 -7 12 -14 0 -8 -7 -11 -17 -8 -15 5 -15 3 1
-10 13 -11 15 -16 6 -16 -7 0 -11 -3 -7 -6 3 -3 15 -3 26 1 17 5 19 10 11 25
-15 27 -12 33 10 27 22 -6 37 8 17 16 -6 2 -27 3 -46 1 -40 -5 -80 17 -77 43
0 10 -6 18 -14 18 -12 0 -16 16 -18 68 -2 48 1 67 10 67 9 0 9 3 0 12 -7 7
-12 19 -11 27 0 11 2 12 6 3 2 -6 10 -9 15 -6 7 5 8 2 4 -5 -5 -7 0 -19 10
-27 11 -9 13 -13 7 -9 -8 4 -13 0 -13 -9 0 -8 -6 -16 -12 -19 -7 -2 -10 -7 -7
-11 4 -4 15 1 25 11 17 17 18 17 11 0 -4 -10 -7 -23 -7 -28 0 -4 -6 -6 -13 -3
-10 3 -14 -4 -15 -26 0 -16 4 -30 9 -30 5 0 9 9 9 20 0 11 5 20 11 20 5 0 8
-4 4 -9 -3 -5 0 -13 6 -16 17 -11 22 2 9 25 -12 22 -12 22 11 6 29 -20 40 -20
33 -2 -3 8 -14 16 -25 19 -10 3 -19 11 -19 19 0 11 2 10 9 -1 5 -7 13 -11 19
-7 5 3 13 -1 16 -10 3 -8 10 -13 15 -9 5 3 12 1 16 -4 7 -12 45 -10 45 2 0 5
-7 7 -15 3 -8 -3 -19 2 -24 13 -9 16 -7 17 15 13 13 -2 30 -13 38 -23 7 -10
16 -16 19 -12 11 10 8 65 -3 58 -5 -3 -8 -11 -6 -18 1 -7 1 -9 -1 -4 -3 4 -9
5 -14 1 -14 -8 -11 6 5 21 7 8 24 12 37 9 23 -5 23 -5 4 7 -29 19 -58 22 -52
6 3 -8 -1 -14 -9 -14 -17 0 -17 -1 0 32 9 17 16 22 21 15 4 -7 15 -10 25 -7
12 3 20 -2 23 -15 4 -15 11 -18 29 -13 19 5 20 4 6 -5 -22 -13 -12 -40 14 -40
10 0 16 5 13 10 -4 6 -11 8 -16 5 -5 -4 -9 -1 -9 5 0 7 7 9 16 6 13 -5 15 -2
11 14 -3 11 -1 20 4 20 5 0 8 -30 7 -67 0 -38 -3 -54 -5 -37 -3 25 -10 33 -29
37 -15 2 -31 -2 -40 -10 -19 -19 -10 -30 11 -13 8 7 15 9 15 4 -1 -5 -22 -24
-47 -43 -25 -19 -42 -28 -38 -21 5 9 4 11 -3 6 -18 -11 -14 -26 6 -26 10 0 23
-5 30 -12 16 -16 16 4 0 22 -11 12 -10 12 5 0 16 -12 20 -12 28 1 8 12 10 12
19 -1 12 -19 13 -40 1 -40 -5 0 -7 -10 -3 -22 5 -21 6 -21 13 -2 4 10 8 15 9
9 2 -5 6 4 11 20 4 17 5 -42 2 -135 -3 -91 -8 -166 -12 -168 -4 -1 -5 -18 -3
-36 2 -19 -1 -43 -8 -53 -10 -16 -11 -16 -6 0 6 20 -30 63 -38 44 -2 -7 -5 -4
-5 6 -1 9 -6 17 -11 17 -17 0 -24 -31 -11 -52 6 -10 9 -23 6 -28 -4 -6 6 -7
25 -4 34 7 38 3 13 -17 -14 -12 -16 -12 -8 0 6 11 4 13 -9 8 -10 -4 -22 -7
-27 -7 -4 0 -6 -7 -3 -15 5 -12 -4 -15 -47 -13 -40 1 -45 2 -20 5 24 3 30 7
21 13 -7 4 -24 4 -37 -1 -16 -6 -30 -5 -41 2 -16 10 -16 10 1 5 9 -3 17 -1 17
5 0 6 5 7 12 3 7 -4 8 -3 4 4 -5 8 -15 8 -32 1 -22 -8 -25 -7 -21 5 4 9 2 18
-2 21 -5 3 -12 -3 -15 -12 -9 -21 25 -49 77 -63 83 -23 171 32 181 113 7 56
58 913 59 998 1 57 -3 73 -26 108 -45 68 -143 102 -231 80z m171 -35 c29 -22
73 -80 73 -97 0 -6 -9 -2 -19 7 -11 10 -17 25 -14 34 4 13 3 14 -5 4 -7 -11
-12 -10 -26 4 -14 14 -15 19 -4 25 10 7 9 9 -4 9 -18 0 -20 -32 -3 -60 4 -8 5
-12 0 -8 -4 4 -17 -4 -28 -18 -14 -19 -17 -28 -8 -37 8 -8 11 -6 11 7 0 15 2
16 15 2 8 -8 15 -21 15 -28 0 -10 -2 -10 -8 -1 -4 7 -18 11 -30 8 -13 -2 -20
0 -17 6 4 5 1 9 -6 9 -10 0 -10 3 -1 12 17 17 15 25 -8 31 -11 3 -20 0 -20 -6
0 -7 -7 -3 -15 7 -8 11 -18 17 -21 13 -4 -4 -1 -13 6 -22 10 -12 10 -15 -4
-15 -10 0 -15 -4 -12 -9 7 -11 -14 -9 -34 4 -8 5 -23 8 -32 7 -10 -2 -18 1
-18 6 0 12 59 34 70 27 4 -3 13 2 20 10 12 15 11 16 -12 19 -23 2 -14 40 12
53 24 12 25 13 3 13 -13 0 -23 -4 -23 -10 0 -5 -6 -7 -14 -4 -17 6 -41 -32
-27 -41 5 -3 11 5 13 17 3 19 5 17 9 -9 3 -18 2 -30 -3 -27 -4 3 -8 0 -8 -5 0
-6 -7 -11 -16 -11 -9 0 -23 -8 -30 -17 -10 -15 -15 -16 -25 -5 -18 17 -39 15
-39 -3 0 -15 10 -19 44 -15 13 1 17 -3 13 -13 -4 -10 2 -17 14 -20 13 -4 19
-12 17 -25 -2 -10 3 -26 11 -35 12 -15 11 -17 -3 -17 -9 0 -16 -6 -16 -12 0
-9 -3 -8 -10 2 -6 9 -5 17 3 23 8 6 8 7 -3 4 -8 -2 -14 -12 -12 -22 2 -11 -1
-15 -10 -12 -7 2 -12 11 -10 18 3 11 1 11 -8 3 -9 -9 -9 -17 -1 -32 8 -15 8
-22 -2 -25 -6 -3 -1 -6 13 -6 15 -1 30 7 38 20 9 14 19 18 32 14 12 -4 20 -2
20 4 0 6 4 11 8 11 5 0 9 -7 9 -15 0 -8 -3 -12 -7 -10 -3 2 -11 -5 -18 -16
-10 -16 -10 -21 3 -25 27 -11 17 -34 -15 -34 -20 0 -30 5 -30 16 0 10 -7 6
-24 -13 -20 -24 -26 -25 -40 -14 -17 14 -19 12 -10 -13 7 -17 40 -22 46 -7 4
11 78 22 78 12 0 -4 6 -16 14 -26 13 -18 14 -16 10 15 -4 31 -3 32 10 15 9
-13 11 -22 4 -26 -5 -3 -9 -10 -9 -14 1 -5 -5 -10 -14 -11 -14 -2 -19 8 -16
29 2 12 -33 7 -52 -7 -10 -8 -28 -11 -40 -8 -12 3 -19 1 -15 -3 4 -5 2 -15 -4
-23 -10 -11 -9 -16 5 -23 9 -6 17 -15 17 -21 0 -7 -5 -6 -15 2 -18 15 -20 -1
-3 -18 9 -9 9 -12 1 -12 -7 0 -14 -15 -16 -32 -2 -18 -5 9 -7 60 -2 50 -5 104
-6 120 -6 68 -6 230 0 250 6 18 11 20 27 12 11 -6 19 -7 19 -1 0 5 -7 12 -16
15 -15 6 -14 10 7 33 38 41 76 54 156 50 54 -2 79 -7 100 -23z m33 -84 c0 -5
-4 -10 -10 -10 -5 0 -10 5 -10 10 0 6 5 10 10 10 6 0 10 -4 10 -10z m-115 -40
c-3 -5 -12 -10 -18 -10 -7 0 -6 4 3 10 19 12 23 12 15 0z m135 -20 c0 -14 -14
-12 -28 2 -19 19 -14 30 8 18 11 -6 20 -15 20 -20z m20 -33 c0 -51 -3 -64 -15
-64 -11 0 -12 4 -5 11 5 5 10 20 10 32 0 17 -5 20 -25 16 -15 -2 -25 0 -25 7
0 7 6 11 13 10 28 -4 37 2 37 26 0 14 2 25 5 25 3 0 5 -28 5 -63z m-248 40 c7
-8 19 -12 26 -9 7 2 16 -5 19 -17 3 -11 10 -18 16 -14 6 3 7 1 3 -5 -4 -7 -3
-12 3 -12 17 0 24 22 10 31 -12 8 -12 11 1 19 25 16 33 11 27 -19 -3 -16 -4
-31 -1 -34 9 -9 34 4 28 14 -3 5 -11 6 -17 3 -7 -4 -7 -1 1 7 11 12 15 11 28
-5 20 -27 18 -35 -8 -28 -14 3 -19 1 -14 -6 5 -8 2 -10 -8 -6 -9 3 -16 10 -16
15 0 6 -8 5 -19 -1 -26 -13 -31 -13 -31 5 0 8 -5 15 -11 15 -6 0 -9 6 -6 13 4
10 -1 13 -16 10 -14 -3 -26 3 -35 16 -14 23 -1 28 20 8z m18 -52 c0 -19 34
-36 57 -29 17 5 17 5 1 -6 -10 -6 -18 -21 -18 -33 0 -17 -2 -19 -9 -7 -6 8 -8
17 -5 21 2 4 -4 14 -13 21 -10 7 -24 21 -32 31 -12 15 -11 17 3 17 9 0 16 -7
16 -15z m165 -15 c3 -5 1 -10 -4 -10 -6 0 -11 5 -11 10 0 6 2 10 4 10 3 0 8
-4 11 -10z m30 0 c3 -5 1 -10 -4 -10 -6 0 -11 5 -11 10 0 6 2 10 4 10 3 0 8
-4 11 -10z m-69 -42 c-9 -12 -16 -29 -15 -38 0 -10 4 -8 11 6 13 27 51 28 67
2 7 -11 8 -17 3 -14 -6 3 -12 3 -15 -1 -2 -5 -2 -2 -1 5 2 6 -1 12 -6 12 -5 0
-11 -8 -13 -17 -3 -13 -5 -12 -6 5 -1 28 -21 19 -21 -9 0 -13 -4 -18 -12 -13
-8 5 -9 0 -6 -14 4 -12 1 -25 -5 -29 -7 -3 -9 -3 -5 1 3 4 3 20 -2 35 -4 16
-4 34 1 42 5 8 3 17 -4 21 -13 9 8 28 31 28 10 0 9 -5 -2 -22z m44 18 c0 -3
-4 -8 -10 -11 -5 -3 -10 -1 -10 4 0 6 5 11 10 11 6 0 10 -2 10 -4z m-87 -37
c4 -15 2 -19 -8 -15 -9 3 -12 0 -8 -10 3 -9 -1 -14 -12 -14 -9 0 -13 -4 -10
-10 3 -5 -1 -10 -9 -10 -18 0 -21 16 -5 25 5 4 14 18 19 31 12 30 26 31 33 3z
m137 1 c0 -5 -2 -10 -4 -10 -3 0 -8 5 -11 10 -3 6 -1 10 4 10 6 0 11 -4 11
-10z m-200 -20 c0 -5 -5 -10 -11 -10 -5 0 -7 5 -4 10 3 6 8 10 11 10 2 0 4 -4
4 -10z m66 -48 c-4 -3 -12 0 -19 8 -9 10 -9 11 1 6 7 -5 12 -1 13 11 1 17 2
17 6 0 3 -10 2 -21 -1 -25z m134 -34 c0 -65 -7 -76 -12 -16 -1 21 -6 34 -13
32 -6 -3 -11 5 -12 17 -2 18 0 19 14 7 15 -11 16 -11 10 5 -3 9 -2 17 3 17 6
0 10 -28 10 -62z m-51 24 c0 -14 -2 -14 -8 2 -7 18 -8 18 -14 2 -5 -12 0 -19
16 -26 20 -8 20 -9 2 -10 -17 0 -17 -2 -5 -10 20 -13 4 -13 -21 1 -15 7 -18
16 -13 32 12 38 45 45 43 9z m-91 -4 c9 -9 9 -15 -1 -26 -10 -12 -9 -16 2 -20
10 -3 7 -9 -10 -19 -24 -14 -24 -14 -1 -10 12 3 20 2 18 -2 -3 -4 -1 -13 5
-21 6 -10 9 -11 9 -2 0 6 5 12 10 12 6 0 10 -7 10 -16 0 -13 7 -15 35 -11 29
5 35 3 35 -12 0 -10 -7 -17 -17 -17 -10 1 -18 -3 -18 -9 0 -5 3 -9 8 -7 4 1 7
-2 7 -8 0 -12 -10 -13 -28 -2 -8 5 -10 16 -5 28 6 17 5 17 -10 5 -15 -12 -17
-12 -11 3 4 11 1 16 -10 16 -9 0 -19 7 -22 15 -4 8 -14 15 -24 15 -28 0 -31
13 -11 46 16 26 16 30 2 41 -14 11 -14 12 0 13 8 0 20 -5 27 -12z m-59 -79 c1
-4 -6 -9 -13 -12 -11 -4 -13 -1 -10 11 5 13 2 13 -11 -3 -16 -19 -16 -19 -10
7 7 26 6 27 -23 16 -22 -9 -28 -16 -24 -31 3 -14 1 -18 -6 -13 -7 4 -12 14
-12 22 0 10 -5 12 -12 8 -10 -6 -10 -4 0 8 7 9 22 15 33 13 11 -2 22 2 26 10
4 12 10 11 33 -8 16 -12 29 -25 29 -28z m96 41 c3 -5 1 -10 -4 -10 -6 0 -11 5
-11 10 0 6 2 10 4 10 3 0 8 -4 11 -10z m85 0 c0 -5 -5 -10 -11 -10 -5 0 -7 5
-4 10 3 6 8 10 11 10 2 0 4 -4 4 -10z m-36 -31 c-2 -4 0 -10 6 -14 5 -3 10 1
10 9 0 9 4 16 9 16 14 0 1 -38 -14 -44 -8 -3 -17 4 -21 16 -5 16 -8 18 -15 7
-5 -8 -9 -9 -9 -3 0 14 7 21 25 21 8 0 12 -4 9 -8z m-194 -43 c14 -18 14 -18
-7 -6 -12 8 -19 18 -16 23 3 4 6 7 7 5 1 -2 8 -12 16 -22z m237 -68 c-2 -18
-4 -4 -4 32 0 36 2 50 4 33 2 -18 2 -48 0 -65z m-141 67 c-4 -10 -1 -15 9 -13
7 2 14 -1 14 -7 1 -12 -15 -13 -51 -4 -21 6 -30 3 -37 -9 -5 -9 -12 -14 -16
-10 -9 9 16 47 35 52 35 9 52 6 46 -9z m-111 -15 c3 -5 1 -10 -4 -10 -6 0 -11
5 -11 10 0 6 2 10 4 10 3 0 8 -4 11 -10z m-18 -41 c-3 -11 -1 -16 4 -13 5 3
12 -2 15 -10 3 -9 10 -16 16 -16 5 0 6 5 3 10 -4 6 -3 10 2 9 28 -5 41 2 36
21 -3 11 0 20 6 20 6 0 11 -9 11 -20 0 -26 36 -46 44 -24 4 11 2 15 -8 11 -10
-4 -13 -1 -9 9 9 24 31 16 28 -11 -3 -27 9 -34 19 -10 6 18 32 20 42 4 4 -8 0
-9 -15 -4 -20 6 -26 -2 -22 -28 1 -5 -8 -6 -19 -2 -11 3 -29 3 -41 0 -16 -5
-18 -10 -8 -21 14 -17 5 -18 -23 -3 -18 10 -25 8 -40 -11 -10 -12 -18 -18 -18
-12 0 12 24 37 48 51 9 5 13 13 8 18 -5 4 -11 2 -13 -4 -3 -7 -15 -13 -27 -13
-12 0 -28 6 -35 13 -10 10 -10 7 -2 -15 10 -26 -1 -49 -16 -34 -4 3 0 6 8 6 8
1 2 8 -13 16 -33 17 -38 54 -8 54 11 0 20 5 20 10 0 6 -5 10 -11 10 -5 0 -7 5
-4 10 10 16 27 0 22 -21z m33 11 c0 -5 -5 -10 -11 -10 -5 0 -7 5 -4 10 3 6 8
10 11 10 2 0 4 -4 4 -10z m196 -89 c-15 -14 -18 -14 -26 -1 -15 24 -11 37 5
16 15 -20 18 -16 16 19 -1 19 -1 19 10 1 9 -14 8 -22 -5 -35z m-129 -36 c12
-26 7 -31 -16 -16 -9 6 -22 6 -33 0 -12 -6 -18 -6 -18 1 0 5 5 10 10 10 6 0 9
3 9 8 -5 32 32 30 48 -3z m-83 0 c3 -8 1 -15 -4 -15 -6 0 -10 7 -10 15 0 8 2
15 4 15 2 0 6 -7 10 -15z m226 -79 c0 -3 -4 -8 -10 -11 -5 -3 -10 -1 -10 4 0
6 5 11 10 11 6 0 10 -2 10 -4z m-40 -20 c0 -2 -8 -10 -17 -17 -16 -13 -17 -12
-4 4 13 16 21 21 21 13z m60 -20 c0 -3 -4 -8 -10 -11 -5 -3 -10 -1 -10 4 0 6
5 11 10 11 6 0 10 -2 10 -4z m-295 -47 c-6 -29 -15 -37 -15 -12 0 17 8 33 16
33 2 0 1 -10 -1 -21z m10 -109 c5 -8 4 -11 -3 -6 -6 3 -12 -3 -15 -16 -2 -13
-4 4 -5 37 0 47 2 53 7 29 4 -17 11 -37 16 -44z m95 -57 c0 -9 6 -13 14 -10
10 4 14 0 13 -12 -1 -16 -5 -17 -23 -9 -14 7 -20 16 -17 26 4 9 2 13 -4 9 -5
-3 -10 0 -10 7 0 8 6 12 14 9 7 -3 13 -12 13 -20z m-70 -72 c0 -5 10 -7 21 -4
16 5 20 2 17 -8 -3 -8 -11 -13 -18 -11 -7 1 -18 -3 -26 -9 -11 -9 -14 -7 -12
15 2 23 18 39 18 17z m50 -72 c0 -6 -4 -7 -10 -4 -5 3 -10 11 -10 16 0 6 5 7
10 4 6 -3 10 -11 10 -16z m130 -69 c13 -11 19 -20 13 -20 -5 0 -18 9 -28 20
-10 11 -16 20 -13 20 3 0 15 -9 28 -20z"/>
<path d="M4490 6461 c-5 -11 -7 -27 -4 -35 10 -27 19 -18 20 19 1 40 -1 42
-16 16z"/>
<path d="M4645 6470 c-4 -6 -11 -8 -16 -4 -11 7 -69 -17 -69 -29 0 -4 9 -3 20
3 15 8 20 8 20 -2 0 -25 18 -40 49 -44 25 -3 31 0 31 16 0 23 -36 36 -55 20
-10 -8 -15 -9 -15 -2 0 6 9 14 20 17 11 3 20 10 20 15 0 5 7 7 15 4 8 -4 15
-1 15 5 0 14 -27 15 -35 1z m20 -50 c3 -5 -3 -10 -15 -10 -12 0 -18 5 -15 10
3 6 10 10 15 10 5 0 12 -4 15 -10z"/>
<path d="M4455 6440 c-3 -5 -1 -10 4 -10 6 0 11 5 11 10 0 6 -2 10 -4 10 -3 0
-8 -4 -11 -10z"/>
<path d="M4536 6382 c-3 -5 0 -15 8 -21 10 -9 17 -7 27 6 12 14 12 15 0 9 -8
-5 -16 -4 -21 4 -5 7 -10 8 -14 2z"/>
<path d="M4419 6336 c-1 -9 -2 -20 -3 -26 -1 -5 4 -10 9 -9 6 1 9 5 8 10 -3
10 9 12 31 3 22 -8 20 -23 -2 -17 -32 8 -45 -21 -40 -88 5 -65 21 -87 45 -63
17 17 8 36 -15 32 -14 -3 -17 6 -17 49 -1 28 2 50 6 47 11 -6 59 17 59 29 0 5
-9 11 -21 14 -12 3 -18 11 -15 19 3 8 1 14 -4 14 -6 0 -10 -5 -10 -11 0 -8 -5
-8 -15 1 -12 10 -15 9 -16 -4z m51 -170 c0 -3 -4 -8 -10 -11 -5 -3 -10 -1 -10
4 0 6 5 11 10 11 6 0 10 -2 10 -4z"/>
<path d="M4506 6205 c-3 -8 -1 -15 4 -15 13 0 22 18 11 24 -5 3 -11 -1 -15 -9z"/>
<path d="M4450 5925 c0 -8 5 -15 10 -15 6 0 10 7 10 15 0 8 -4 15 -10 15 -5 0
-10 -7 -10 -15z"/>
<path d="M5060 6500 c6 -11 13 -20 16 -20 2 0 0 9 -6 20 -6 11 -13 20 -16 20
-2 0 0 -9 6 -20z"/>
<path d="M4090 6480 c-6 -11 -8 -20 -6 -20 3 0 10 9 16 20 6 11 8 20 6 20 -3
0 -10 -9 -16 -20z"/>
<path d="M4066 6433 c-6 -14 -5 -15 5 -6 7 7 10 15 7 18 -3 3 -9 -2 -12 -12z"/>
<path d="M5110 6410 c6 -11 13 -20 16 -20 2 0 0 9 -6 20 -6 11 -13 20 -16 20
-2 0 0 -9 6 -20z"/>
<path d="M4030 6370 c-6 -11 -8 -20 -6 -20 3 0 10 9 16 20 6 11 8 20 6 20 -3
0 -10 -9 -16 -20z"/>
<path d="M5155 6330 c9 -16 18 -30 21 -30 2 0 -2 14 -11 30 -9 17 -18 30 -21
30 -2 0 2 -13 11 -30z"/>
<path d="M3985 6290 c-9 -16 -13 -30 -11 -30 3 0 12 14 21 30 9 17 13 30 11
30 -3 0 -12 -13 -21 -30z"/>
<path d="M3930 6190 c-6 -11 -8 -20 -6 -20 3 0 10 9 16 20 6 11 8 20 6 20 -3
0 -10 -9 -16 -20z"/>
<path d="M3880 6100 c-6 -11 -8 -20 -6 -20 3 0 10 9 16 20 6 11 8 20 6 20 -3
0 -10 -9 -16 -20z"/>
<path d="M3840 6030 c-6 -11 -8 -20 -6 -20 3 0 10 9 16 20 6 11 8 20 6 20 -3
0 -10 -9 -16 -20z"/>
<path d="M5360 5961 c0 -6 4 -13 10 -16 6 -3 7 1 4 9 -7 18 -14 21 -14 7z"/>
<path d="M3785 5930 c-9 -16 -13 -30 -11 -30 3 0 12 14 21 30 9 17 13 30 11
30 -3 0 -12 -13 -21 -30z"/>
<path d="M3740 5850 c-6 -11 -8 -20 -6 -20 3 0 10 9 16 20 6 11 8 20 6 20 -3
0 -10 -9 -16 -20z"/>
<path d="M4667 5823 c-12 -12 -7 -22 8 -17 8 4 15 10 15 15 0 11 -14 12 -23 2z"/>
<path d="M3695 5770 c-9 -16 -13 -30 -11 -30 3 0 12 14 21 30 9 17 13 30 11
30 -3 0 -12 -13 -21 -30z"/>
<path d="M4550 5766 c0 -9 5 -16 10 -16 6 0 10 4 10 9 0 6 -4 13 -10 16 -5 3
-10 -1 -10 -9z"/>
<path d="M4585 5752 c-3 -4 -20 -7 -38 -8 -18 -1 -43 -6 -56 -10 l-24 -7 24
-18 c20 -15 21 -19 7 -19 -22 0 -23 -16 -2 -24 23 -9 34 -7 34 4 0 5 -8 7 -17
3 -15 -5 -14 -3 2 10 19 14 19 16 3 22 -18 7 -15 25 3 25 6 0 7 -4 4 -10 -8
-13 1 -13 28 0 18 9 19 8 5 -2 -15 -11 -15 -13 0 -24 15 -11 14 -12 -8 -8 -23
5 -24 5 -7 -9 10 -9 29 -13 42 -11 21 4 23 1 20 -27 -3 -17 -10 -37 -16 -45
-9 -11 -8 -14 5 -14 9 0 16 6 16 14 0 21 28 46 44 40 8 -3 12 -16 10 -34 -2
-18 2 -30 12 -34 12 -5 14 -1 9 15 -6 18 -5 19 13 8 17 -11 18 -13 3 -28 -13
-14 -18 -15 -30 -3 -7 7 -20 11 -28 8 -8 -3 -11 -1 -8 4 3 6 -1 10 -10 10 -9
0 -13 -4 -10 -10 3 -6 -1 -7 -10 -4 -11 5 -14 2 -9 -10 3 -9 10 -16 15 -16 4
0 6 -7 3 -15 -4 -8 -2 -15 4 -15 5 0 12 8 14 18 3 10 13 19 23 19 16 0 16 -1
1 -12 -9 -7 -16 -21 -15 -31 0 -18 1 -18 9 1 7 16 9 17 9 3 1 -9 11 -24 23
-32 12 -9 19 -19 15 -22 -4 -4 -16 1 -27 11 -11 10 -20 13 -20 7 0 -11 47 -52
60 -52 9 0 6 32 -4 48 -4 6 -2 12 3 12 6 0 11 16 11 36 0 21 -4 33 -10 29 -5
-3 -10 -2 -10 3 0 6 7 12 15 16 9 3 14 18 13 41 -1 23 -5 32 -11 26 -13 -13
-37 -2 -30 15 3 8 -1 14 -10 14 -9 0 -23 7 -32 17 -11 11 -19 13 -24 5 -4 -7
-14 -4 -31 8 -14 11 -19 20 -12 20 6 0 12 9 12 20 0 16 5 19 24 14 13 -3 26
-1 30 4 6 10 -48 14 -59 4z m69 -97 c17 -13 16 -14 -10 -10 -16 2 -30 4 -32 4
-6 2 9 21 16 21 4 0 15 -7 26 -15z m53 -144 c1 -11 -5 -22 -14 -25 -11 -5 -14
-2 -9 11 4 9 1 20 -6 25 -9 5 -7 8 7 8 13 0 21 -7 22 -19z"/>
<path d="M5500 5710 c6 -11 13 -20 16 -20 2 0 0 9 -6 20 -6 11 -13 20 -16 20
-2 0 0 -9 6 -20z"/>
<path d="M4675 5691 c-3 -5 -1 -12 4 -15 5 -3 11 1 15 9 6 16 -9 21 -19 6z"/>
<path d="M3615 5629 c-4 -6 -5 -12 -2 -15 2 -3 7 2 10 11 7 17 1 20 -8 4z"/>
<path d="M4565 5620 c3 -5 11 -10 16 -10 6 0 7 5 4 10 -3 6 -11 10 -16 10 -6
0 -7 -4 -4 -10z"/>
<path d="M4627 5613 c-11 -10 -8 -20 6 -26 8 -3 13 3 13 14 0 19 -8 24 -19 12z"/>
<path d="M5595 5540 c9 -16 18 -30 21 -30 2 0 -2 14 -11 30 -9 17 -18 30 -21
30 -2 0 2 -13 11 -30z"/>
<path d="M3536 5483 c-6 -14 -5 -15 5 -6 7 7 10 15 7 18 -3 3 -9 -2 -12 -12z"/>
<path d="M3500 5420 c-11 -22 -18 -40 -15 -40 2 0 14 18 25 40 11 22 18 40 15
40 -2 0 -14 -18 -25 -40z"/>
<path d="M4633 5418 c-20 -10 -21 -12 -6 -34 14 -22 14 -24 -1 -24 -9 0 -16
-5 -16 -10 0 -6 -11 -16 -25 -22 -28 -13 -33 -28 -9 -28 8 0 12 4 9 10 -3 6 1
7 10 3 13 -4 14 -8 4 -14 -8 -4 -10 -11 -6 -15 4 -4 2 -13 -4 -21 -9 -10 -8
-13 4 -13 8 0 18 -6 21 -12 4 -7 4 -3 2 9 -2 12 -1 22 3 21 19 -2 20 5 6 33
-15 29 -15 32 2 45 10 7 24 11 31 9 8 -3 18 -5 23 -5 5 0 9 -7 9 -15 0 -8 5
-15 10 -15 6 0 10 9 10 20 0 13 -7 20 -19 20 -31 0 -34 18 -4 22 14 2 28 9 29
16 1 7 0 8 -3 2 -3 -7 -10 -4 -19 7 -13 17 -13 17 -14 1 0 -10 -4 -18 -9 -18
-5 0 -7 9 -4 20 6 22 -1 24 -34 8z m14 -30 c2 -17 0 -19 -7 -8 -5 8 -6 18 -4
22 8 12 10 10 11 -14z"/>
<path d="M3455 5340 c-9 -16 -13 -30 -11 -30 3 0 12 14 21 30 9 17 13 30 11
30 -3 0 -12 -13 -21 -30z"/>
<path d="M5700 5350 c6 -11 13 -20 16 -20 2 0 0 9 -6 20 -6 11 -13 20 -16 20
-2 0 0 -9 6 -20z"/>
<path d="M4486 5312 c-8 -13 10 -26 24 -17 6 3 7 -1 4 -10 -5 -13 -2 -15 20
-9 18 4 26 2 26 -7 0 -10 3 -10 12 -1 10 10 10 15 -2 22 -8 5 -18 6 -22 3 -5
-2 -15 1 -23 7 -8 7 -15 9 -15 4 0 -5 -4 -3 -9 5 -5 8 -11 9 -15 3z"/>
<path d="M5740 5280 c6 -11 13 -20 16 -20 2 0 0 9 -6 20 -6 11 -13 20 -16 20
-2 0 0 -9 6 -20z"/>
<path d="M3390 5220 c-6 -11 -8 -20 -6 -20 3 0 10 9 16 20 6 11 8 20 6 20 -3
0 -10 -9 -16 -20z"/>
<path d="M5780 5210 c6 -11 13 -20 16 -20 2 0 0 9 -6 20 -6 11 -13 20 -16 20
-2 0 0 -9 6 -20z"/>
<path d="M3350 5150 c-6 -11 -8 -20 -6 -20 3 0 10 9 16 20 6 11 8 20 6 20 -3
0 -10 -9 -16 -20z"/>
<path d="M3310 5080 c-6 -11 -8 -20 -6 -20 3 0 10 9 16 20 6 11 8 20 6 20 -3
0 -10 -9 -16 -20z"/>
<path d="M5880 5030 c6 -11 13 -20 16 -20 2 0 0 9 -6 20 -6 11 -13 20 -16 20
-2 0 0 -9 6 -20z"/>
<path d="M4546 5028 c-83 -18 -146 -84 -161 -170 -15 -81 42 -186 125 -228 69
-36 194 -3 243 62 54 73 60 148 20 229 -44 86 -133 128 -227 107z m38 -24 c5
-14 4 -15 -8 -5 -10 9 -20 9 -33 3 -19 -10 -25 -12 -44 -12 -8 0 -8 -4 1 -14
8 -11 18 -12 35 -6 19 7 23 6 18 -6 -3 -8 -10 -14 -17 -13 -25 3 -37 -2 -30
-12 5 -8 1 -8 -13 0 -11 6 -24 7 -28 3 -5 -4 -5 -1 -1 6 4 6 2 12 -3 12 -6 0
-11 -6 -11 -14 0 -8 -7 -16 -15 -20 -12 -4 -13 -2 -6 12 14 26 43 49 81 66 46
20 66 20 74 0z m92 -3 c66 -30 97 -80 101 -160 5 -84 -8 -122 -37 -116 -14 3
-20 0 -17 -8 3 -7 11 -11 18 -9 25 6 -36 -50 -70 -64 -44 -18 -125 -18 -161 1
-17 9 -30 18 -30 21 0 2 9 0 21 -6 32 -18 34 -4 2 15 -20 12 -22 15 -8 12 15
-3 21 1 22 15 2 16 -1 17 -12 8 -8 -6 -19 -9 -25 -5 -9 6 -15 -8 -11 -29 4
-22 -30 19 -48 57 -19 42 -28 142 -13 162 7 10 32 18 32 11 0 -13 -13 -35 -19
-32 -3 2 -6 -13 -7 -34 0 -21 2 -39 5 -38 22 2 30 -4 24 -19 -4 -11 -3 -14 5
-9 7 4 12 2 12 -3 0 -18 -28 -13 -39 7 -6 9 -10 13 -11 7 0 -18 14 -32 51 -53
27 -15 40 -17 48 -9 14 14 15 40 1 32 -5 -3 -10 1 -10 9 0 9 6 16 13 16 8 0 7
4 -3 10 -8 5 -23 7 -34 4 -13 -4 -17 -2 -14 7 3 8 12 13 21 11 9 -1 30 4 46
13 35 18 41 18 41 5 0 -5 -7 -10 -16 -10 -8 0 -12 -4 -9 -10 3 -6 -1 -7 -9 -4
-21 8 -20 -5 2 -30 16 -20 16 -20 -2 -6 -18 14 -19 13 -13 -3 4 -10 7 -23 7
-29 0 -20 30 14 31 36 1 16 2 17 6 4 2 -10 -2 -27 -11 -39 -16 -24 -11 -49 10
-49 11 0 12 5 5 18 -6 12 -4 23 9 39 l18 22 0 -24 c0 -13 -6 -22 -12 -21 -6 2
-8 1 -3 -1 4 -3 7 -11 7 -20 0 -12 2 -12 16 1 14 15 18 15 44 -1 31 -18 30
-38 -3 -47 -28 -7 -32 -2 -13 17 14 13 14 16 0 27 -12 11 -13 10 -8 -4 5 -14
2 -16 -20 -12 -14 3 -26 0 -26 -5 0 -5 -11 -7 -25 -3 -27 7 -28 5 -19 -20 5
-14 8 -14 30 1 22 14 28 11 25 -9 -2 -12 45 -9 73 3 14 7 23 16 20 20 -3 5 1
6 9 3 8 -3 18 0 23 7 5 9 2 10 -9 6 -9 -3 -19 -2 -22 3 -4 6 0 10 7 10 8 0 15
13 16 30 1 17 -2 30 -8 30 -6 0 -10 8 -8 18 2 9 -4 18 -12 18 -8 1 -21 2 -29
3 -11 1 -10 6 5 23 18 20 18 21 1 15 -10 -4 -16 -3 -13 2 3 5 -1 11 -9 15 -10
3 -15 -1 -15 -11 0 -22 -10 -11 -15 16 -3 18 -1 20 15 11 23 -12 33 -13 26 -1
-3 4 6 13 19 19 23 11 25 10 25 -16 0 -20 3 -23 10 -12 5 8 11 12 14 9 3 -2 1
-11 -5 -19 -8 -13 -11 -12 -24 4 -7 10 -19 15 -25 11 -8 -5 -6 -11 6 -19 9 -7
14 -18 10 -24 -4 -7 -1 -12 6 -11 16 1 56 17 45 18 -5 1 -1 8 7 17 9 8 13 20
10 25 -5 9 -48 31 -65 33 -3 1 -13 9 -23 19 -11 11 -26 15 -37 12 -10 -4 -19
-3 -19 2 0 17 39 32 74 27 20 -2 36 0 36 6 0 5 -7 6 -17 3 -10 -4 -14 -2 -10
4 5 7 0 9 -13 6 -12 -3 -22 1 -26 11 -8 21 -24 20 -25 -1 0 -14 -2 -15 -6 -3
-3 8 -11 18 -17 22 -23 16 41 7 80 -11z m-95 -78 c1 -10 3 -30 4 -45 3 -20 0
-25 -11 -21 -8 3 -20 0 -28 -6 -10 -8 -21 -8 -45 2 -17 7 -28 16 -24 20 3 4 1
7 -6 7 -8 0 -11 -7 -7 -15 3 -8 1 -15 -4 -15 -6 0 -10 9 -10 20 0 11 4 20 9
20 5 0 7 10 4 23 -3 15 1 12 13 -10 9 -18 20 -33 25 -33 9 0 1 28 -14 48 -7 9
-6 11 7 6 9 -3 16 -15 16 -26 0 -18 1 -18 16 -4 20 20 34 20 34 0 0 -8 -5 -12
-10 -9 -6 3 -17 0 -25 -9 -11 -10 -12 -17 -4 -22 6 -3 14 -2 18 3 3 5 14 12
23 16 17 6 14 47 -4 47 -5 0 -6 5 -3 10 10 16 25 12 26 -7z m44 -12 c-3 -5 -1
-12 5 -16 5 -3 10 -1 10 5 0 6 5 8 11 4 8 -5 6 -10 -5 -16 -9 -5 -21 -6 -26
-3 -13 8 -13 35 1 35 5 0 8 -4 4 -9z m-125 -76 c0 -8 -4 -15 -9 -15 -5 0 -11
7 -15 15 -3 9 0 15 9 15 8 0 15 -7 15 -15z m-40 -5 c12 -8 11 -10 -7 -10 -13
0 -23 5 -23 10 0 13 11 13 30 0z m165 -18 c-6 -7 -45 9 -45 18 0 4 11 3 24 -3
14 -7 23 -13 21 -15z m-138 -52 c1 -11 -2 -20 -5 -20 -4 0 -8 9 -9 20 -1 11 2
20 5 20 4 0 8 -9 9 -20z m151 6 c-10 -7 -14 -17 -10 -21 4 -5 1 -5 -7 0 -12 7
-11 10 4 22 24 17 36 17 13 -1z m39 -2 c-3 -4 1 -13 9 -21 11 -12 12 -18 3
-29 -6 -8 -17 -14 -23 -14 -6 0 -5 4 3 9 12 8 12 12 2 25 -12 14 -8 36 6 36 4
0 4 -3 0 -6z"/>
<path d="M4470 4976 c0 -2 7 -9 15 -16 13 -11 14 -10 9 4 -5 14 -24 23 -24 12z"/>
<path d="M4637 4948 c6 -11 43 -10 43 1 0 5 -11 8 -24 7 -13 0 -22 -4 -19 -8z"/>
<path d="M4680 4932 c-13 -14 -12 -15 1 -10 9 4 23 -2 32 -13 9 -10 24 -19 32
-19 10 0 13 -5 9 -12 -4 -7 -3 -8 4 -4 15 9 4 36 -13 30 -9 -4 -12 0 -8 14 2
11 0 23 -7 27 -16 10 -25 -2 -14 -18 5 -7 2 -6 -6 3 -14 15 -17 15 -30 2z"/>
<path d="M4749 4838 c-1 -13 -1 -26 0 -30 0 -5 -3 -8 -9 -8 -5 0 -7 -6 -4 -14
3 -8 1 -17 -5 -21 -6 -3 -11 -1 -11 4 0 6 -5 11 -10 11 -6 0 -5 -8 2 -20 7
-11 22 -20 33 -19 11 0 14 3 7 6 -10 4 -10 8 -1 19 13 16 19 94 7 94 -4 0 -9
-10 -9 -22z"/>
<path d="M4705 4800 c3 -5 8 -10 11 -10 2 0 4 5 4 10 0 6 -5 10 -11 10 -5 0
-7 -4 -4 -10z"/>
<path d="M4430 4731 c0 -5 5 -13 10 -16 6 -3 10 -2 10 4 0 5 -4 13 -10 16 -5
3 -10 2 -10 -4z"/>
<path d="M4570 4650 c-9 -6 -10 -10 -3 -10 6 0 15 5 18 10 8 12 4 12 -15 0z"/>
<path d="M3260 4990 c-6 -11 -8 -20 -6 -20 3 0 10 9 16 20 6 11 8 20 6 20 -3
0 -10 -9 -16 -20z"/>
<path d="M5956 4897 c3 -10 9 -15 12 -12 3 3 0 11 -7 18 -10 9 -11 8 -5 -6z"/>
<path d="M3170 4507 c0 -2 15 -16 33 -33 l32 -29 -29 33 c-28 30 -36 37 -36
29z"/>
<path d="M3973 4403 c339 -2 895 -2 1235 0 339 1 61 2 -618 2 -679 0 -957 -1
-617 -2z"/>
<path d="M5510 3564 c-36 -36 -98 -95 -138 -131 -40 -36 -70 -68 -67 -71 3 -3
0 -11 -6 -18 -7 -8 -6 -14 2 -19 6 -4 14 -4 18 1 8 12 31 16 31 6 0 -7 -57
-32 -73 -32 -13 0 -7 27 8 40 9 7 13 15 11 18 -3 2 -31 -18 -63 -45 -32 -27
-73 -61 -92 -75 -22 -17 -35 -35 -35 -51 -1 -14 1 -24 4 -23 3 2 13 -5 23 -16
9 -10 13 -18 7 -18 -5 0 -10 -5 -10 -11 0 -6 9 -8 23 -3 12 3 20 5 17 3 -3 -2
-16 -13 -29 -24 -14 -11 -21 -14 -17 -7 4 6 2 12 -3 12 -6 0 -11 -5 -11 -10 0
-16 43 -29 57 -18 7 5 17 7 23 3 11 -7 50 20 173 124 67 55 85 76 75 83 -9 6
-5 7 10 3 21 -6 23 -4 18 13 -5 13 -1 22 10 26 14 5 15 4 4 -9 -26 -32 7 -13
52 29 42 40 46 47 39 74 -5 16 -5 36 0 44 10 19 1 76 -14 85 -5 3 -8 2 -5 -3
3 -5 -4 -18 -15 -29 -17 -17 -19 -17 -14 -3 3 10 2 20 -3 23 -6 4 -10 1 -10
-5 0 -6 -5 -8 -11 -5 -12 8 -7 15 13 19 7 2 21 6 30 10 9 4 22 5 28 1 5 -3 10
-1 10 4 0 6 -10 11 -22 11 -12 0 -18 3 -14 8 4 4 12 7 18 7 6 0 13 10 14 23 2
12 3 22 1 22 -1 0 -31 -30 -67 -66z m-1 -95 c9 -1 21 -1 28 0 6 1 15 -4 19
-10 5 -9 2 -10 -9 -6 -10 4 -17 1 -18 -6 0 -9 -2 -9 -6 1 -2 6 -11 12 -19 12
-8 0 -17 7 -21 16 -3 8 -12 13 -21 9 -13 -5 -13 -3 -1 11 12 15 14 14 23 -5 5
-12 16 -22 25 -22z m-79 -14 c-8 -9 -8 -15 -2 -15 6 0 14 5 17 10 8 13 25 13
25 1 0 -13 -34 -23 -54 -15 -16 6 -16 8 1 24 21 21 31 17 13 -5z m-2 -38 c7 3
10 -1 6 -11 -7 -17 -45 -7 -52 13 -3 10 1 10 14 3 11 -5 25 -7 32 -5z m64 -17
c3 9 8 7 18 -6 10 -12 11 -15 2 -10 -7 4 -20 2 -29 -6 -12 -9 -15 -9 -9 0 5 8
1 12 -11 13 -10 0 -13 3 -6 5 7 3 10 13 7 22 -3 9 1 6 9 -7 9 -15 16 -19 19
-11z m-126 -22 c1 -18 -1 -27 -3 -20 -3 6 -12 12 -20 12 -14 0 -14 3 2 20 10
11 19 20 19 20 1 0 2 -15 2 -32z m51 -4 c-3 -3 -12 -4 -19 -1 -8 3 -5 6 6 6
11 1 17 -2 13 -5z m50 -40 c-10 -10 -33 8 -34 28 l-2 21 21 -22 c11 -12 18
-24 15 -27z m65 24 c-7 -7 -12 -8 -12 -2 0 14 12 26 19 19 2 -3 -1 -11 -7 -17z
m-33 -9 c-16 -10 -23 -4 -14 10 3 6 11 8 17 5 6 -4 5 -9 -3 -15z m-104 -19 c3
-6 -1 -7 -9 -4 -18 7 -21 14 -7 14 6 0 13 -4 16 -10z m-52 -52 c-5 -29 -4 -31
9 -21 12 10 18 10 33 -1 14 -10 15 -15 5 -21 -8 -5 -11 -4 -7 2 4 6 0 14 -9
17 -12 4 -15 2 -10 -9 6 -16 -14 -16 -26 0 -11 15 -32 -11 -24 -30 4 -12 10
-14 25 -5 31 16 35 12 10 -9 -22 -17 -24 -17 -36 -2 -16 20 -17 48 -1 53 6 2
12 15 14 29 3 31 2 29 14 29 5 0 7 -14 3 -32z m-75 -20 c-6 -18 -25 -20 -31
-3 -5 10 0 15 14 15 12 0 19 -5 17 -12z m-41 -14 c-3 -3 -12 -4 -19 -1 -8 3
-5 6 6 6 11 1 17 -2 13 -5z m-15 -27 c17 15 68 9 79 -8 11 -18 11 -32 0 -25
-8 6 -26 -21 -23 -36 2 -11 -32 -2 -36 10 -2 7 2 10 11 6 8 -3 17 2 20 10 4
11 1 16 -11 16 -14 0 -15 2 -2 9 8 6 18 7 24 4 5 -3 6 -1 2 5 -10 16 -61 9
-61 -8 0 -9 -8 -14 -20 -12 -17 2 -16 0 4 -12 l24 -13 -27 0 c-24 0 -27 3 -22
23 4 14 2 24 -4 24 -5 0 -10 5 -10 10 0 6 8 5 19 -2 14 -9 23 -9 33 -1z m-70
-37 c10 -10 14 -22 9 -24 -4 -3 -13 6 -19 19 -14 30 -12 31 10 5z m68 -50 c0
-13 -11 -13 -30 0 -12 8 -11 10 8 10 12 0 22 -4 22 -10z m-2 -31 c-15 -4 -32
-10 -39 -14 -8 -6 -10 -4 -5 4 10 16 48 30 61 23 5 -3 -3 -9 -17 -13z"/>
<path d="M5280 3320 c0 -5 5 -10 11 -10 5 0 7 5 4 10 -3 6 -8 10 -11 10 -2 0
-4 -4 -4 -10z"/>
<path d="M6980 5265 c-178 -40 -340 -166 -419 -326 -65 -132 -71 -175 -71
-559 0 -184 4 -341 8 -348 7 -10 137 -12 618 -10 l609 3 3 359 c2 295 0 370
-13 420 -52 208 -226 388 -435 450 -79 24 -221 29 -300 11z"/>
<path d="M7024 3509 c-53 -15 -127 -71 -161 -122 -80 -120 -58 -285 53 -387
l45 -41 -30 -196 c-37 -233 -39 -278 -12 -293 11 -6 91 -10 189 -10 151 0 171
2 185 18 23 25 22 44 -13 277 l-29 200 43 40 c24 22 56 65 72 95 24 46 29 67
29 130 0 62 -5 85 -28 132 -63 129 -210 196 -343 157z"/>
<path d="M1164 5198 c-71 -19 -117 -104 -95 -177 13 -44 70 -100 104 -102 70
-4 114 15 147 61 76 107 -27 252 -156 218z"/>
</g>
</svg>
